<svg xmlns="http://www.w3.org/2000/svg" viewBox="0 0 300 300"><path fill="white" transform="translate(0 300) scale(1 -1)" d="M18 284H55V247H18ZM75 284H111V247H75ZM18 226H55V190H18ZM75 226H111V190H75ZM132 284H168V247H132ZM189 284H225V247H189ZM132 226H168V189H132ZM189 226H225V189H189ZM18 168H55V132H18ZM75 168H111V132H75ZM18 110H55V74H18ZM75 110H111V74H75ZM132 168H168V132H132ZM189 168H225V132H189ZM132 110H168V74H132ZM189 110H225V74H189ZM245 284H282V247H245ZM245 226H282V189H245ZM245 168H282V132H245ZM245 110H282V74H245ZM18 53H55V16H18ZM75 53H111V16H75ZM132 53H168V16H132ZM189 53H225V16H189ZM245 53H282V16H245Z"/></svg>