<svg xmlns="http://www.w3.org/2000/svg" width="300" height="300" viewBox="0 0 120 120" role="img" aria-labelledby="_R_0_" focusable="false"><title id="_R_0_">OLL top-layer case preview</title><g stroke-width="0.9" stroke-linejoin="round"><polygon points="24.5,25.7 24.54,25.39 24.66,25.1 24.85,24.85 25.1,24.66 25.39,24.54 25.7,24.5 36.3,24.5 36.61,24.54 36.9,24.66 37.15,24.85 37.34,25.1 37.46,25.39 37.5,25.7 37.5,35.76 37.44,36.21 37.27,36.63 36.99,36.99 36.63,37.27 36.21,37.44 35.76,37.5 25.7,37.5 25.39,37.46 25.1,37.34 24.85,37.15 24.66,36.9 24.54,36.61 24.5,36.3" fill="#ffe62a" stroke="#ffe62a"></polygon><polygon points="39,25.7 39.04,25.39 39.16,25.1 39.35,24.85 39.6,24.66 39.89,24.54 40.2,24.5 50.8,24.5 51.11,24.54 51.4,24.66 51.65,24.85 51.84,25.1 51.96,25.39 52,25.7 52,33.73 51.87,34.71 51.49,35.61 50.9,36.4 50.12,36.99 49.21,37.37 48.23,37.5 42.77,37.5 41.79,37.37 40.89,36.99 40.1,36.4 39.51,35.62 39.13,34.71 39,33.73" fill="#90909a" stroke="#90909a"></polygon><polygon points="53.5,25.7 53.54,25.39 53.66,25.1 53.85,24.85 54.1,24.66 54.39,24.54 54.7,24.5 65.3,24.5 65.61,24.54 65.9,24.66 66.15,24.85 66.34,25.1 66.46,25.39 66.5,25.7 66.5,33.73 66.37,34.71 65.99,35.61 65.4,36.4 64.61,36.99 63.71,37.37 62.73,37.5 57.27,37.5 56.29,37.37 55.39,36.99 54.6,36.4 54.01,35.62 53.63,34.71 53.5,33.73" fill="#90909a" stroke="#90909a"></polygon><polygon points="68,25.7 68.04,25.39 68.16,25.1 68.35,24.85 68.6,24.66 68.89,24.54 69.2,24.5 79.8,24.5 80.11,24.54 80.4,24.66 80.65,24.85 80.84,25.1 80.96,25.39 81,25.7 81,33.73 80.87,34.71 80.49,35.61 79.9,36.4 79.12,36.99 78.21,37.37 77.23,37.5 71.77,37.5 70.79,37.37 69.89,36.99 69.1,36.4 68.51,35.62 68.13,34.71 68,33.73" fill="#90909a" stroke="#90909a"></polygon><polygon points="82.5,25.7 82.54,25.39 82.66,25.1 82.85,24.85 83.1,24.66 83.39,24.54 83.7,24.5 94.3,24.5 94.61,24.54 94.9,24.66 95.15,24.85 95.34,25.1 95.46,25.39 95.5,25.7 95.5,36.3 95.46,36.61 95.34,36.9 95.15,37.15 94.9,37.34 94.61,37.46 94.3,37.5 84.24,37.5 83.79,37.44 83.37,37.27 83.01,36.99 82.73,36.63 82.56,36.21 82.5,35.76" fill="#90909a" stroke="#90909a"></polygon><polygon points="24.5,40.2 24.54,39.89 24.66,39.6 24.85,39.35 25.1,39.16 25.39,39.04 25.7,39 33.73,39 34.71,39.13 35.61,39.51 36.4,40.1 36.99,40.88 37.37,41.79 37.5,42.77 37.5,48.23 37.37,49.21 36.99,50.11 36.4,50.9 35.62,51.49 34.71,51.87 33.73,52 25.7,52 25.39,51.96 25.1,51.84 24.85,51.65 24.66,51.4 24.54,51.11 24.5,50.8" fill="#ffe62a" stroke="#ffe62a"></polygon><polygon points="39,42.77 39.13,41.79 39.51,40.89 40.1,40.1 40.88,39.51 41.79,39.13 42.77,39 48.23,39 49.21,39.13 50.11,39.51 50.9,40.1 51.49,40.88 51.87,41.79 52,42.77 52,48.23 51.87,49.21 51.49,50.11 50.9,50.9 50.12,51.49 49.21,51.87 48.23,52 42.77,52 41.79,51.87 40.89,51.49 40.1,50.9 39.51,50.12 39.13,49.21 39,48.23" fill="#ffe62a" stroke="#ffe62a"></polygon><polygon points="53.5,42.77 53.63,41.79 54.01,40.89 54.6,40.1 55.38,39.51 56.29,39.13 57.27,39 62.73,39 63.71,39.13 64.61,39.51 65.4,40.1 65.99,40.88 66.37,41.79 66.5,42.77 66.5,48.23 66.37,49.21 65.99,50.11 65.4,50.9 64.61,51.49 63.71,51.87 62.73,52 57.27,52 56.29,51.87 55.39,51.49 54.6,50.9 54.01,50.12 53.63,49.21 53.5,48.23" fill="#ffe62a" stroke="#ffe62a"></polygon><polygon points="68,42.77 68.13,41.79 68.51,40.89 69.1,40.1 69.88,39.51 70.79,39.13 71.77,39 77.23,39 78.21,39.13 79.11,39.51 79.9,40.1 80.49,40.88 80.87,41.79 81,42.77 81,48.23 80.87,49.21 80.49,50.11 79.9,50.9 79.12,51.49 78.21,51.87 77.23,52 71.77,52 70.79,51.87 69.89,51.49 69.1,50.9 68.51,50.12 68.13,49.21 68,48.23" fill="#ffe62a" stroke="#ffe62a"></polygon><polygon points="82.5,42.77 82.63,41.79 83.01,40.89 83.6,40.1 84.38,39.51 85.29,39.13 86.27,39 94.3,39 94.61,39.04 94.9,39.16 95.15,39.35 95.34,39.6 95.46,39.89 95.5,40.2 95.5,50.8 95.46,51.11 95.34,51.4 95.15,51.65 94.9,51.84 94.61,51.96 94.3,52 86.27,52 85.29,51.87 84.39,51.49 83.6,50.9 83.01,50.12 82.63,49.21 82.5,48.23" fill="#90909a" stroke="#90909a"></polygon><polygon points="24.5,54.7 24.54,54.39 24.66,54.1 24.85,53.85 25.1,53.66 25.39,53.54 25.7,53.5 33.73,53.5 34.71,53.63 35.61,54.01 36.4,54.6 36.99,55.38 37.37,56.29 37.5,57.27 37.5,62.73 37.37,63.71 36.99,64.61 36.4,65.4 35.62,65.99 34.71,66.37 33.73,66.5 25.7,66.5 25.39,66.46 25.1,66.34 24.85,66.15 24.66,65.9 24.54,65.61 24.5,65.3" fill="#ffe62a" stroke="#ffe62a"></polygon><polygon points="39,57.27 39.13,56.29 39.51,55.39 40.1,54.6 40.88,54.01 41.79,53.63 42.77,53.5 48.23,53.5 49.21,53.63 50.11,54.01 50.9,54.6 51.49,55.38 51.87,56.29 52,57.27 52,62.73 51.87,63.71 51.49,64.61 50.9,65.4 50.12,65.99 49.21,66.37 48.23,66.5 42.77,66.5 41.79,66.37 40.89,65.99 40.1,65.4 39.51,64.61 39.13,63.71 39,62.73" fill="#ffe62a" stroke="#ffe62a"></polygon><polygon points="53.5,57.27 53.63,56.29 54.01,55.39 54.6,54.6 55.38,54.01 56.29,53.63 57.27,53.5 62.73,53.5 63.71,53.63 64.61,54.01 65.4,54.6 65.99,55.38 66.37,56.29 66.5,57.27 66.5,62.73 66.37,63.71 65.99,64.61 65.4,65.4 64.61,65.99 63.71,66.37 62.73,66.5 57.27,66.5 56.29,66.37 55.39,65.99 54.6,65.4 54.01,64.61 53.63,63.71 53.5,62.73" fill="#ffe62a" stroke="#ffe62a"></polygon><polygon points="68,57.27 68.13,56.29 68.51,55.39 69.1,54.6 69.88,54.01 70.79,53.63 71.77,53.5 77.23,53.5 78.21,53.63 79.11,54.01 79.9,54.6 80.49,55.38 80.87,56.29 81,57.27 81,62.73 80.87,63.71 80.49,64.61 79.9,65.4 79.12,65.99 78.21,66.37 77.23,66.5 71.77,66.5 70.79,66.37 69.89,65.99 69.1,65.4 68.51,64.61 68.13,63.71 68,62.73" fill="#ffe62a" stroke="#ffe62a"></polygon><polygon points="82.5,57.27 82.63,56.29 83.01,55.39 83.6,54.6 84.38,54.01 85.29,53.63 86.27,53.5 94.3,53.5 94.61,53.54 94.9,53.66 95.15,53.85 95.34,54.1 95.46,54.39 95.5,54.7 95.5,65.3 95.46,65.61 95.34,65.9 95.15,66.15 94.9,66.34 94.61,66.46 94.3,66.5 86.27,66.5 85.29,66.37 84.39,65.99 83.6,65.4 83.01,64.61 82.63,63.71 82.5,62.73" fill="#90909a" stroke="#90909a"></polygon><polygon points="24.5,69.2 24.54,68.89 24.66,68.6 24.85,68.35 25.1,68.16 25.39,68.04 25.7,68 33.73,68 34.71,68.13 35.61,68.51 36.4,69.1 36.99,69.88 37.37,70.79 37.5,71.77 37.5,77.23 37.37,78.21 36.99,79.11 36.4,79.9 35.62,80.49 34.71,80.87 33.73,81 25.7,81 25.39,80.96 25.1,80.84 24.85,80.65 24.66,80.4 24.54,80.11 24.5,79.8" fill="#ffe62a" stroke="#ffe62a"></polygon><polygon points="39,71.77 39.13,70.79 39.51,69.89 40.1,69.1 40.88,68.51 41.79,68.13 42.77,68 48.23,68 49.21,68.13 50.11,68.51 50.9,69.1 51.49,69.88 51.87,70.79 52,71.77 52,77.23 51.87,78.21 51.49,79.11 50.9,79.9 50.12,80.49 49.21,80.87 48.23,81 42.77,81 41.79,80.87 40.89,80.49 40.1,79.9 39.51,79.12 39.13,78.21 39,77.23" fill="#ffe62a" stroke="#ffe62a"></polygon><polygon points="53.5,71.77 53.63,70.79 54.01,69.89 54.6,69.1 55.38,68.51 56.29,68.13 57.27,68 62.73,68 63.71,68.13 64.61,68.51 65.4,69.1 65.99,69.88 66.37,70.79 66.5,71.77 66.5,77.23 66.37,78.21 65.99,79.11 65.4,79.9 64.61,80.49 63.71,80.87 62.73,81 57.27,81 56.29,80.87 55.39,80.49 54.6,79.9 54.01,79.12 53.63,78.21 53.5,77.23" fill="#ffe62a" stroke="#ffe62a"></polygon><polygon points="68,71.77 68.13,70.79 68.51,69.89 69.1,69.1 69.88,68.51 70.79,68.13 71.77,68 77.23,68 78.21,68.13 79.11,68.51 79.9,69.1 80.49,69.88 80.87,70.79 81,71.77 81,77.23 80.87,78.21 80.49,79.11 79.9,79.9 79.12,80.49 78.21,80.87 77.23,81 71.77,81 70.79,80.87 69.89,80.49 69.1,79.9 68.51,79.12 68.13,78.21 68,77.23" fill="#ffe62a" stroke="#ffe62a"></polygon><polygon points="82.5,71.77 82.63,70.79 83.01,69.89 83.6,69.1 84.38,68.51 85.29,68.13 86.27,68 94.3,68 94.61,68.04 94.9,68.16 95.15,68.35 95.34,68.6 95.46,68.89 95.5,69.2 95.5,79.8 95.46,80.11 95.34,80.4 95.15,80.65 94.9,80.84 94.61,80.96 94.3,81 86.27,81 85.29,80.87 84.39,80.49 83.6,79.9 83.01,79.12 82.63,78.21 82.5,77.23" fill="#90909a" stroke="#90909a"></polygon><polygon points="24.5,83.7 24.54,83.39 24.66,83.1 24.85,82.85 25.1,82.66 25.39,82.54 25.7,82.5 35.76,82.5 36.21,82.56 36.63,82.73 36.99,83.01 37.27,83.37 37.44,83.79 37.5,84.24 37.5,94.3 37.46,94.61 37.34,94.9 37.15,95.15 36.9,95.34 36.61,95.46 36.3,95.5 25.7,95.5 25.39,95.46 25.1,95.34 24.85,95.15 24.66,94.9 24.54,94.61 24.5,94.3" fill="#90909a" stroke="#90909a"></polygon><polygon points="39,86.27 39.13,85.29 39.51,84.39 40.1,83.6 40.88,83.01 41.79,82.63 42.77,82.5 48.23,82.5 49.21,82.63 50.11,83.01 50.9,83.6 51.49,84.38 51.87,85.29 52,86.27 52,94.3 51.96,94.61 51.84,94.9 51.65,95.15 51.4,95.34 51.11,95.46 50.8,95.5 40.2,95.5 39.89,95.46 39.6,95.34 39.35,95.15 39.16,94.9 39.04,94.61 39,94.3" fill="#ffe62a" stroke="#ffe62a"></polygon><polygon points="53.5,86.27 53.63,85.29 54.01,84.39 54.6,83.6 55.38,83.01 56.29,82.63 57.27,82.5 62.73,82.5 63.71,82.63 64.61,83.01 65.4,83.6 65.99,84.38 66.37,85.29 66.5,86.27 66.5,94.3 66.46,94.61 66.34,94.9 66.15,95.15 65.9,95.34 65.61,95.46 65.3,95.5 54.7,95.5 54.39,95.46 54.1,95.34 53.85,95.15 53.66,94.9 53.54,94.61 53.5,94.3" fill="#ffe62a" stroke="#ffe62a"></polygon><polygon points="68,86.27 68.13,85.29 68.51,84.39 69.1,83.6 69.88,83.01 70.79,82.63 71.77,82.5 77.23,82.5 78.21,82.63 79.11,83.01 79.9,83.6 80.49,84.38 80.87,85.29 81,86.27 81,94.3 80.96,94.61 80.84,94.9 80.65,95.15 80.4,95.34 80.11,95.46 79.8,95.5 69.2,95.5 68.89,95.46 68.6,95.34 68.35,95.15 68.16,94.9 68.04,94.61 68,94.3" fill="#ffe62a" stroke="#ffe62a"></polygon><polygon points="82.5,84.24 82.56,83.79 82.73,83.37 83.01,83.01 83.37,82.73 83.79,82.56 84.24,82.5 94.3,82.5 94.61,82.54 94.9,82.66 95.15,82.85 95.34,83.1 95.46,83.39 95.5,83.7 95.5,94.3 95.46,94.61 95.34,94.9 95.15,95.15 94.9,95.34 94.61,95.46 94.3,95.5 83.7,95.5 83.39,95.46 83.1,95.34 82.85,95.15 82.66,94.9 82.54,94.61 82.5,94.3" fill="#ffe62a" stroke="#ffe62a"></polygon><polygon points="24.5,14.5 24.55,14.11 24.7,13.75 24.94,13.44 25.25,13.2 25.61,13.05 26,13 36,13 36.39,13.05 36.75,13.2 37.06,13.44 37.3,13.75 37.45,14.11 37.5,14.5 37.5,18 37.45,18.39 37.3,18.75 37.06,19.06 36.75,19.3 36.39,19.45 36,19.5 26,19.5 25.61,19.45 25.25,19.3 24.94,19.06 24.7,18.75 24.55,18.39 24.5,18" fill="#90909a" stroke="#90909a"></polygon><polygon points="100.5,26 100.55,25.61 100.7,25.25 100.94,24.94 101.25,24.7 101.61,24.55 102,24.5 105.5,24.5 105.89,24.55 106.25,24.7 106.56,24.94 106.8,25.25 106.95,25.61 107,26 107,36 106.95,36.39 106.8,36.75 106.56,37.06 106.25,37.3 105.89,37.45 105.5,37.5 102,37.5 101.61,37.45 101.25,37.3 100.94,37.06 100.7,36.75 100.55,36.39 100.5,36" fill="#ffe62a" stroke="#ffe62a"></polygon><polygon points="24.5,102 24.55,101.61 24.7,101.25 24.94,100.94 25.25,100.7 25.61,100.55 26,100.5 36,100.5 36.39,100.55 36.75,100.7 37.06,100.94 37.3,101.25 37.45,101.61 37.5,102 37.5,105.5 37.45,105.89 37.3,106.25 37.06,106.56 36.75,106.8 36.39,106.95 36,107 26,107 25.61,106.95 25.25,106.8 24.94,106.56 24.7,106.25 24.55,105.89 24.5,105.5" fill="#ffe62a" stroke="#ffe62a"></polygon><polygon points="13,26 13.05,25.61 13.2,25.25 13.44,24.94 13.75,24.7 14.11,24.55 14.5,24.5 18,24.5 18.39,24.55 18.75,24.7 19.06,24.94 19.3,25.25 19.45,25.61 19.5,26 19.5,36 19.45,36.39 19.3,36.75 19.06,37.06 18.75,37.3 18.39,37.45 18,37.5 14.5,37.5 14.11,37.45 13.75,37.3 13.44,37.06 13.2,36.75 13.05,36.39 13,36" fill="#90909a" stroke="#90909a"></polygon><polygon points="39,14.5 39.05,14.11 39.2,13.75 39.44,13.44 39.75,13.2 40.11,13.05 40.5,13 50.5,13 50.89,13.05 51.25,13.2 51.56,13.44 51.8,13.75 51.95,14.11 52,14.5 52,18 51.95,18.39 51.8,18.75 51.56,19.06 51.25,19.3 50.89,19.45 50.5,19.5 40.5,19.5 40.11,19.45 39.75,19.3 39.44,19.06 39.2,18.75 39.05,18.39 39,18" fill="#ffe62a" stroke="#ffe62a"></polygon><polygon points="100.5,40.5 100.55,40.11 100.7,39.75 100.94,39.44 101.25,39.2 101.61,39.05 102,39 105.5,39 105.89,39.05 106.25,39.2 106.56,39.44 106.8,39.75 106.95,40.11 107,40.5 107,50.5 106.95,50.89 106.8,51.25 106.56,51.56 106.25,51.8 105.89,51.95 105.5,52 102,52 101.61,51.95 101.25,51.8 100.94,51.56 100.7,51.25 100.55,50.89 100.5,50.5" fill="#ffe62a" stroke="#ffe62a"></polygon><polygon points="39,102 39.05,101.61 39.2,101.25 39.44,100.94 39.75,100.7 40.11,100.55 40.5,100.5 50.5,100.5 50.89,100.55 51.25,100.7 51.56,100.94 51.8,101.25 51.95,101.61 52,102 52,105.5 51.95,105.89 51.8,106.25 51.56,106.56 51.25,106.8 50.89,106.95 50.5,107 40.5,107 40.11,106.95 39.75,106.8 39.44,106.56 39.2,106.25 39.05,105.89 39,105.5" fill="#90909a" stroke="#90909a"></polygon><polygon points="13,40.5 13.05,40.11 13.2,39.75 13.44,39.44 13.75,39.2 14.11,39.05 14.5,39 18,39 18.39,39.05 18.75,39.2 19.06,39.44 19.3,39.75 19.45,40.11 19.5,40.5 19.5,50.5 19.45,50.89 19.3,51.25 19.06,51.56 18.75,51.8 18.39,51.95 18,52 14.5,52 14.11,51.95 13.75,51.8 13.44,51.56 13.2,51.25 13.05,50.89 13,50.5" fill="#90909a" stroke="#90909a"></polygon><polygon points="53.5,14.5 53.55,14.11 53.7,13.75 53.94,13.44 54.25,13.2 54.61,13.05 55,13 65,13 65.39,13.05 65.75,13.2 66.06,13.44 66.3,13.75 66.45,14.11 66.5,14.5 66.5,18 66.45,18.39 66.3,18.75 66.06,19.06 65.75,19.3 65.39,19.45 65,19.5 55,19.5 54.61,19.45 54.25,19.3 53.94,19.06 53.7,18.75 53.55,18.39 53.5,18" fill="#ffe62a" stroke="#ffe62a"></polygon><polygon points="100.5,55 100.55,54.61 100.7,54.25 100.94,53.94 101.25,53.7 101.61,53.55 102,53.5 105.5,53.5 105.89,53.55 106.25,53.7 106.56,53.94 106.8,54.25 106.95,54.61 107,55 107,65 106.95,65.39 106.8,65.75 106.56,66.06 106.25,66.3 105.89,66.45 105.5,66.5 102,66.5 101.61,66.45 101.25,66.3 100.94,66.06 100.7,65.75 100.55,65.39 100.5,65" fill="#ffe62a" stroke="#ffe62a"></polygon><polygon points="53.5,102 53.55,101.61 53.7,101.25 53.94,100.94 54.25,100.7 54.61,100.55 55,100.5 65,100.5 65.39,100.55 65.75,100.7 66.06,100.94 66.3,101.25 66.45,101.61 66.5,102 66.5,105.5 66.45,105.89 66.3,106.25 66.06,106.56 65.75,106.8 65.39,106.95 65,107 55,107 54.61,106.95 54.25,106.8 53.94,106.56 53.7,106.25 53.55,105.89 53.5,105.5" fill="#90909a" stroke="#90909a"></polygon><polygon points="13,55 13.05,54.61 13.2,54.25 13.44,53.94 13.75,53.7 14.11,53.55 14.5,53.5 18,53.5 18.39,53.55 18.75,53.7 19.06,53.94 19.3,54.25 19.45,54.61 19.5,55 19.5,65 19.45,65.39 19.3,65.75 19.06,66.06 18.75,66.3 18.39,66.45 18,66.5 14.5,66.5 14.11,66.45 13.75,66.3 13.44,66.06 13.2,65.75 13.05,65.39 13,65" fill="#90909a" stroke="#90909a"></polygon><polygon points="68,14.5 68.05,14.11 68.2,13.75 68.44,13.44 68.75,13.2 69.11,13.05 69.5,13 79.5,13 79.89,13.05 80.25,13.2 80.56,13.44 80.8,13.75 80.95,14.11 81,14.5 81,18 80.95,18.39 80.8,18.75 80.56,19.06 80.25,19.3 79.89,19.45 79.5,19.5 69.5,19.5 69.11,19.45 68.75,19.3 68.44,19.06 68.2,18.75 68.05,18.39 68,18" fill="#ffe62a" stroke="#ffe62a"></polygon><polygon points="100.5,69.5 100.55,69.11 100.7,68.75 100.94,68.44 101.25,68.2 101.61,68.05 102,68 105.5,68 105.89,68.05 106.25,68.2 106.56,68.44 106.8,68.75 106.95,69.11 107,69.5 107,79.5 106.95,79.89 106.8,80.25 106.56,80.56 106.25,80.8 105.89,80.95 105.5,81 102,81 101.61,80.95 101.25,80.8 100.94,80.56 100.7,80.25 100.55,79.89 100.5,79.5" fill="#ffe62a" stroke="#ffe62a"></polygon><polygon points="68,102 68.05,101.61 68.2,101.25 68.44,100.94 68.75,100.7 69.11,100.55 69.5,100.5 79.5,100.5 79.89,100.55 80.25,100.7 80.56,100.94 80.8,101.25 80.95,101.61 81,102 81,105.5 80.95,105.89 80.8,106.25 80.56,106.56 80.25,106.8 79.89,106.95 79.5,107 69.5,107 69.11,106.95 68.75,106.8 68.44,106.56 68.2,106.25 68.05,105.89 68,105.5" fill="#90909a" stroke="#90909a"></polygon><polygon points="13,69.5 13.05,69.11 13.2,68.75 13.44,68.44 13.75,68.2 14.11,68.05 14.5,68 18,68 18.39,68.05 18.75,68.2 19.06,68.44 19.3,68.75 19.45,69.11 19.5,69.5 19.5,79.5 19.45,79.89 19.3,80.25 19.06,80.56 18.75,80.8 18.39,80.95 18,81 14.5,81 14.11,80.95 13.75,80.8 13.44,80.56 13.2,80.25 13.05,79.89 13,79.5" fill="#90909a" stroke="#90909a"></polygon><polygon points="82.5,14.5 82.55,14.11 82.7,13.75 82.94,13.44 83.25,13.2 83.61,13.05 84,13 94,13 94.39,13.05 94.75,13.2 95.06,13.44 95.3,13.75 95.45,14.11 95.5,14.5 95.5,18 95.45,18.39 95.3,18.75 95.06,19.06 94.75,19.3 94.39,19.45 94,19.5 84,19.5 83.61,19.45 83.25,19.3 82.94,19.06 82.7,18.75 82.55,18.39 82.5,18" fill="#90909a" stroke="#90909a"></polygon><polygon points="100.5,84 100.55,83.61 100.7,83.25 100.94,82.94 101.25,82.7 101.61,82.55 102,82.5 105.5,82.5 105.89,82.55 106.25,82.7 106.56,82.94 106.8,83.25 106.95,83.61 107,84 107,94 106.95,94.39 106.8,94.75 106.56,95.06 106.25,95.3 105.89,95.45 105.5,95.5 102,95.5 101.61,95.45 101.25,95.3 100.94,95.06 100.7,94.75 100.55,94.39 100.5,94" fill="#90909a" stroke="#90909a"></polygon><polygon points="82.5,102 82.55,101.61 82.7,101.25 82.94,100.94 83.25,100.7 83.61,100.55 84,100.5 94,100.5 94.39,100.55 94.75,100.7 95.06,100.94 95.3,101.25 95.45,101.61 95.5,102 95.5,105.5 95.45,105.89 95.3,106.25 95.06,106.56 94.75,106.8 94.39,106.95 94,107 84,107 83.61,106.95 83.25,106.8 82.94,106.56 82.7,106.25 82.55,105.89 82.5,105.5" fill="#90909a" stroke="#90909a"></polygon><polygon points="13,84 13.05,83.61 13.2,83.25 13.44,82.94 13.75,82.7 14.11,82.55 14.5,82.5 18,82.5 18.39,82.55 18.75,82.7 19.06,82.94 19.3,83.25 19.45,83.61 19.5,84 19.5,94 19.45,94.39 19.3,94.75 19.06,95.06 18.75,95.3 18.39,95.45 18,95.5 14.5,95.5 14.11,95.45 13.75,95.3 13.44,95.06 13.2,94.75 13.05,94.39 13,94" fill="#90909a" stroke="#90909a"></polygon></g></svg>