<svg xmlns="http://www.w3.org/2000/svg" width="300" height="300" viewBox="0 0 120 118" role="img" aria-labelledby="_R_0_" focusable="false"><title id="_R_0_">Rubik&#x27;s Cube case preview</title><g stroke="rgba(7, 7, 10, .9)" stroke-width="1.15" stroke-linejoin="round"><polygon points="60,6.45 65.83571428571429,8.857142857142858 60,11.264285714285714 54.16428571428572,8.857142857142858" fill="rgb(255, 230, 42)"></polygon><polygon points="67.28571428571429,10.307142857142857 73.12142857142857,12.714285714285714 67.28571428571429,15.12142857142857 61.45,12.714285714285714" fill="rgb(255, 230, 42)"></polygon><polygon points="74.57142857142857,14.164285714285713 80.40714285714286,16.571428571428573 74.57142857142857,18.97857142857143 68.7357142857143,16.57142857142857" fill="rgb(255, 230, 42)"></polygon><polygon points="81.85714285714286,18.021428571428572 87.69285714285714,20.428571428571427 81.85714285714286,22.835714285714285 76.02142857142857,20.42857142857143" fill="rgb(255, 230, 42)"></polygon><polygon points="89.14285714285714,21.878571428571426 94.97857142857143,24.285714285714285 89.14285714285714,26.69285714285714 83.30714285714286,24.285714285714285" fill="rgb(255, 230, 42)"></polygon><polygon points="96.42857142857143,25.735714285714284 102.26428571428572,28.142857142857146 96.42857142857144,30.55 90.59285714285714,28.14285714285714" fill="rgb(255, 230, 42)"></polygon><polygon points="103.71428571428572,29.592857142857145 109.55,32 103.71428571428572,34.40714285714285 97.87857142857145,32" fill="rgb(255, 230, 42)"></polygon><polygon points="52.714285714285715,10.307142857142857 58.55,12.714285714285714 52.714285714285715,15.12142857142857 46.87857142857143,12.714285714285714" fill="rgb(255, 230, 42)"></polygon><polygon points="60,14.164285714285713 65.83571428571429,16.57142857142857 60,18.978571428571428 54.16428571428572,16.57142857142857" fill="rgb(255, 230, 42)"></polygon><polygon points="67.28571428571429,18.02142857142857 73.12142857142857,20.42857142857143 67.28571428571429,22.835714285714285 61.45,20.428571428571427" fill="rgb(255, 230, 42)"></polygon><polygon points="74.57142857142857,21.87857142857143 80.40714285714286,24.285714285714285 74.57142857142857,26.69285714285714 68.7357142857143,24.285714285714285" fill="rgb(255, 230, 42)"></polygon><polygon points="81.85714285714286,25.735714285714284 87.69285714285714,28.14285714285714 81.85714285714286,30.55 76.02142857142857,28.14285714285714" fill="rgb(255, 230, 42)"></polygon><polygon points="89.14285714285714,29.592857142857138 94.97857142857144,32 89.14285714285714,34.40714285714286 83.30714285714286,32" fill="rgb(255, 230, 42)"></polygon><polygon points="96.42857142857144,33.45 102.26428571428572,35.857142857142854 96.42857142857143,38.26428571428571 90.59285714285714,35.85714285714286" fill="rgb(255, 230, 42)"></polygon><polygon points="45.42857142857143,14.164285714285713 51.26428571428571,16.57142857142857 45.42857142857143,18.97857142857143 39.59285714285714,16.571428571428573" fill="rgb(255, 230, 42)"></polygon><polygon points="52.714285714285715,18.02142857142857 58.55,20.428571428571427 52.714285714285715,22.835714285714285 46.87857142857143,20.42857142857143" fill="rgb(255, 230, 42)"></polygon><polygon points="60,21.878571428571426 65.83571428571429,24.285714285714285 60,26.692857142857147 54.16428571428571,24.285714285714285" fill="rgb(255, 230, 42)"></polygon><polygon points="67.28571428571429,25.735714285714284 73.12142857142857,28.14285714285714 67.28571428571428,30.55 61.45,28.142857142857146" fill="rgb(255, 230, 42)"></polygon><polygon points="74.57142857142857,29.592857142857138 80.40714285714286,32 74.57142857142857,34.40714285714286 68.73571428571428,32" fill="rgb(255, 230, 42)"></polygon><polygon points="81.85714285714286,33.45 87.69285714285714,35.85714285714286 81.85714285714286,38.26428571428572 76.02142857142857,35.85714285714286" fill="rgb(255, 230, 42)"></polygon><polygon points="89.14285714285714,37.307142857142864 94.97857142857143,39.714285714285715 89.14285714285714,42.12142857142857 83.30714285714286,39.71428571428572" fill="rgb(255, 230, 42)"></polygon><polygon points="38.14285714285714,18.021428571428572 43.97857142857143,20.42857142857143 38.142857142857146,22.835714285714285 32.30714285714286,20.428571428571427" fill="rgb(255, 230, 42)"></polygon><polygon points="45.42857142857143,21.87857142857143 51.264285714285705,24.285714285714285 45.42857142857143,26.69285714285714 39.59285714285715,24.285714285714285" fill="rgb(255, 230, 42)"></polygon><polygon points="52.71428571428571,25.735714285714284 58.55,28.142857142857146 52.714285714285715,30.55 46.87857142857143,28.14285714285714" fill="rgb(255, 230, 42)"></polygon><polygon points="60,29.592857142857145 65.83571428571427,32 60,34.40714285714285 54.16428571428572,32" fill="rgb(255, 230, 42)"></polygon><polygon points="67.28571428571428,33.45 73.12142857142857,35.85714285714286 67.28571428571429,38.264285714285705 61.45,35.857142857142854" fill="rgb(255, 230, 42)"></polygon><polygon points="74.57142857142857,37.307142857142864 80.40714285714286,39.71428571428572 74.57142857142858,42.12142857142857 68.7357142857143,39.71428571428571" fill="rgb(255, 230, 42)"></polygon><polygon points="81.85714285714286,41.164285714285725 87.69285714285714,43.57142857142857 81.85714285714286,45.97857142857143 76.02142857142859,43.57142857142857" fill="rgb(255, 230, 42)"></polygon><polygon points="30.857142857142858,21.878571428571426 36.69285714285714,24.285714285714285 30.857142857142858,26.69285714285714 25.02142857142857,24.285714285714285" fill="rgb(255, 230, 42)"></polygon><polygon points="38.142857142857146,25.735714285714284 43.97857142857143,28.14285714285714 38.142857142857146,30.55 32.30714285714286,28.14285714285714" fill="rgb(255, 230, 42)"></polygon><polygon points="45.42857142857143,29.592857142857138 51.26428571428571,32 45.42857142857143,34.40714285714286 39.59285714285715,32" fill="rgb(255, 230, 42)"></polygon><polygon points="52.714285714285715,33.45 58.55,35.857142857142854 52.714285714285715,38.264285714285705 46.87857142857143,35.85714285714286" fill="rgb(255, 230, 42)"></polygon><polygon points="60,37.30714285714286 65.83571428571429,39.71428571428571 60,42.12142857142857 54.16428571428572,39.71428571428571" fill="rgb(255, 230, 42)"></polygon><polygon points="67.28571428571429,41.16428571428571 73.12142857142858,43.57142857142857 67.28571428571429,45.97857142857143 61.45,43.57142857142857" fill="rgb(255, 230, 42)"></polygon><polygon points="74.57142857142858,45.02142857142857 80.40714285714286,47.42857142857143 74.57142857142857,49.835714285714275 68.7357142857143,47.42857142857143" fill="rgb(255, 230, 42)"></polygon><polygon points="23.57142857142857,25.735714285714284 29.40714285714286,28.14285714285714 23.571428571428566,30.55 17.735714285714284,28.142857142857146" fill="rgb(255, 230, 42)"></polygon><polygon points="30.857142857142858,29.592857142857138 36.69285714285714,32 30.857142857142854,34.40714285714286 25.02142857142856,32" fill="rgb(255, 230, 42)"></polygon><polygon points="38.142857142857146,33.45 43.97857142857143,35.85714285714286 38.14285714285714,38.26428571428572 32.30714285714286,35.85714285714286" fill="rgb(255, 230, 42)"></polygon><polygon points="45.42857142857143,37.307142857142864 51.26428571428571,39.71428571428571 45.42857142857142,42.12142857142857 39.59285714285714,39.71428571428572" fill="rgb(255, 230, 42)"></polygon><polygon points="52.714285714285715,41.16428571428571 58.55,43.57142857142857 52.71428571428571,45.97857142857143 46.878571428571426,43.57142857142857" fill="rgb(255, 230, 42)"></polygon><polygon points="60,45.02142857142857 65.83571428571429,47.42857142857143 60,49.83571428571429 54.16428571428571,47.42857142857143" fill="rgb(255, 230, 42)"></polygon><polygon points="67.28571428571429,48.87857142857143 73.12142857142857,51.28571428571428 67.28571428571428,53.692857142857136 61.45,51.28571428571429" fill="rgb(255, 230, 42)"></polygon><polygon points="16.285714285714285,29.592857142857145 22.121428571428563,32 16.285714285714285,34.40714285714285 10.45,32" fill="rgb(255, 230, 42)"></polygon><polygon points="23.571428571428566,33.45 29.407142857142855,35.85714285714286 23.57142857142857,38.26428571428571 17.735714285714284,35.857142857142854" fill="rgb(255, 230, 42)"></polygon><polygon points="30.857142857142854,37.307142857142864 36.692857142857136,39.71428571428572 30.857142857142858,42.12142857142857 25.02142857142857,39.714285714285715" fill="rgb(255, 230, 42)"></polygon><polygon points="38.14285714285714,41.164285714285725 43.97857142857142,43.57142857142857 38.14285714285714,45.97857142857143 32.30714285714286,43.57142857142857" fill="rgb(255, 230, 42)"></polygon><polygon points="45.42857142857142,45.02142857142857 51.264285714285705,47.42857142857143 45.42857142857143,49.835714285714275 39.59285714285714,47.42857142857143" fill="rgb(255, 230, 42)"></polygon><polygon points="52.71428571428571,48.87857142857143 58.55,51.28571428571429 52.714285714285715,53.692857142857136 46.87857142857143,51.28571428571428" fill="rgb(255, 230, 42)"></polygon><polygon points="60,52.735714285714295 65.83571428571427,55.14285714285714 60,57.55 54.16428571428572,55.14285714285714" fill="rgb(255, 230, 42)"></polygon><polygon points="9.772579241044902,33.22703761813014 15.004221807011046,36.53558005175045 15.513135044669383,42.34439095329843 10.281492478703239,39.03584851967812" fill="rgb(26, 190, 87)"></polygon><polygon points="17.058293526759186,37.084180475272994 22.28993609272533,40.39272290889331 22.798849330383668,46.20153381044129 17.567206764417524,42.89299137682097" fill="rgb(61, 124, 224)"></polygon><polygon points="24.34400781247347,40.941323332415855 29.57565037843962,44.249865766036166 30.084563616097956,50.058676667584145 24.85292105013181,46.750134233963834" fill="rgb(61, 124, 224)"></polygon><polygon points="31.62972209818776,44.79846618955871 36.861364664153896,48.10700862317903 37.37027790181224,53.915819524727006 32.1386353358461,50.60727709110669" fill="rgb(61, 124, 224)"></polygon><polygon points="38.91543638390204,48.65560904670157 44.14707894986819,51.96415148032188 44.65599218752653,57.77296238186986 39.42434962156038,54.46441994824955" fill="rgb(61, 124, 224)"></polygon><polygon points="46.20115066961633,52.512751903844425 51.43279323558247,55.82129433746474 51.941706473240814,61.63010523901272 46.71006390727467,58.321562805392404" fill="rgb(61, 124, 224)"></polygon><polygon points="53.48686495533062,56.369894760987286 58.71850752129676,59.678437194607596 59.2274207589551,65.48724809615557 53.99577819298895,62.178705662535265" fill="rgb(26, 190, 87)"></polygon><polygon points="9.772579241044902,40.941323332415855 15.004221807011046,44.249865766036166 15.513135044669383,50.05867666758414 10.281492478703239,46.750134233963834" fill="rgb(36, 36, 42)"></polygon><polygon points="17.058293526759186,44.79846618955871 22.28993609272533,48.10700862317903 22.798849330383668,53.915819524727 17.567206764417524,50.60727709110668" fill="rgb(36, 36, 42)"></polygon><polygon points="24.34400781247347,48.65560904670157 29.57565037843962,51.96415148032188 30.084563616097956,57.77296238186986 24.85292105013181,54.46441994824954" fill="rgb(36, 36, 42)"></polygon><polygon points="31.62972209818776,52.512751903844425 36.861364664153896,55.82129433746474 37.37027790181224,61.63010523901272 32.1386353358461,58.321562805392404" fill="rgb(36, 36, 42)"></polygon><polygon points="38.91543638390204,56.369894760987286 44.14707894986819,59.678437194607596 44.65599218752653,65.48724809615557 39.424349621560374,62.178705662535265" fill="rgb(36, 36, 42)"></polygon><polygon points="46.20115066961633,60.22703761813014 51.43279323558247,63.53558005175046 51.941706473240814,69.34439095329843 46.71006390727467,66.03584851967811" fill="rgb(36, 36, 42)"></polygon><polygon points="53.48686495533062,64.084180475273 58.71850752129676,67.3927229088933 59.2274207589551,73.20153381044129 53.99577819298896,69.89299137682097" fill="rgb(36, 36, 42)"></polygon><polygon points="9.772579241044902,48.65560904670157 15.004221807011046,51.964151480321874 15.513135044669383,57.77296238186986 10.281492478703239,54.46441994824955" fill="rgb(36, 36, 42)"></polygon><polygon points="17.058293526759186,52.51275190384442 22.28993609272533,55.821294337464735 22.798849330383668,61.63010523901272 17.567206764417524,58.321562805392404" fill="rgb(36, 36, 42)"></polygon><polygon points="24.34400781247347,56.36989476098728 29.57565037843962,59.678437194607596 30.084563616097956,65.48724809615558 24.85292105013181,62.178705662535265" fill="rgb(36, 36, 42)"></polygon><polygon points="31.62972209818776,60.22703761813014 36.861364664153896,63.53558005175046 37.37027790181224,69.34439095329844 32.1386353358461,66.03584851967813" fill="rgb(36, 36, 42)"></polygon><polygon points="38.91543638390204,64.084180475273 44.14707894986819,67.3927229088933 44.65599218752653,73.20153381044129 39.424349621560374,69.89299137682099" fill="rgb(36, 36, 42)"></polygon><polygon points="46.20115066961633,67.94132333241585 51.43279323558247,71.24986576603617 51.941706473240814,77.05867666758415 46.71006390727467,73.75013423396383" fill="rgb(36, 36, 42)"></polygon><polygon points="53.48686495533062,71.79846618955871 58.71850752129676,75.10700862317903 59.2274207589551,80.915819524727 53.99577819298896,77.6072770911067" fill="rgb(36, 36, 42)"></polygon><polygon points="9.772579241044902,56.369894760987286 15.004221807011044,59.678437194607596 15.513135044669383,65.48724809615557 10.281492478703239,62.17870566253526" fill="rgb(36, 36, 42)"></polygon><polygon points="17.058293526759186,60.22703761813014 22.28993609272533,63.53558005175046 22.798849330383668,69.34439095329843 17.567206764417527,66.03584851967811" fill="rgb(36, 36, 42)"></polygon><polygon points="24.34400781247347,64.084180475273 29.575650378439615,67.39272290889332 30.084563616097956,73.20153381044128 24.85292105013181,69.89299137682097" fill="rgb(36, 36, 42)"></polygon><polygon points="31.62972209818776,67.94132333241586 36.861364664153896,71.24986576603618 37.37027790181224,77.05867666758414 32.1386353358461,73.75013423396382" fill="rgb(36, 36, 42)"></polygon><polygon points="38.91543638390204,71.79846618955872 44.14707894986819,75.10700862317903 44.65599218752653,80.915819524727 39.42434962156038,77.60727709110668" fill="rgb(36, 36, 42)"></polygon><polygon points="46.20115066961633,75.65560904670157 51.43279323558247,78.96415148032189 51.941706473240814,84.77296238186986 46.71006390727467,81.46441994824954" fill="rgb(36, 36, 42)"></polygon><polygon points="53.48686495533062,79.51275190384443 58.718507521296765,82.82129433746474 59.2274207589551,88.63010523901272 53.99577819298896,85.3215628053924" fill="rgb(36, 36, 42)"></polygon><polygon points="9.772579241044902,64.08418047527299 15.004221807011046,67.3927229088933 15.513135044669383,73.20153381044128 10.281492478703239,69.89299137682097" fill="rgb(36, 36, 42)"></polygon><polygon points="17.058293526759186,67.94132333241585 22.28993609272533,71.24986576603617 22.798849330383668,77.05867666758414 17.567206764417527,73.75013423396382" fill="rgb(36, 36, 42)"></polygon><polygon points="24.34400781247347,71.79846618955871 29.575650378439622,75.10700862317901 30.084563616097956,80.915819524727 24.852921050131812,77.60727709110668" fill="rgb(36, 36, 42)"></polygon><polygon points="31.62972209818776,75.65560904670156 36.861364664153896,78.96415148032187 37.37027790181224,84.77296238186986 32.1386353358461,81.46441994824954" fill="rgb(36, 36, 42)"></polygon><polygon points="38.91543638390204,79.51275190384442 44.14707894986819,82.82129433746474 44.65599218752653,88.63010523901272 39.42434962156038,85.3215628053924" fill="rgb(36, 36, 42)"></polygon><polygon points="46.20115066961633,83.36989476098728 51.43279323558248,86.6784371946076 51.941706473240814,92.48724809615558 46.71006390727467,89.17870566253526" fill="rgb(36, 36, 42)"></polygon><polygon points="53.48686495533062,87.22703761813014 58.71850752129676,90.53558005175046 59.2274207589551,96.34439095329843 53.99577819298896,93.03584851967813" fill="rgb(36, 36, 42)"></polygon><polygon points="9.772579241044902,71.79846618955871 15.004221807011048,75.10700862317901 15.513135044669383,80.915819524727 10.281492478703239,77.6072770911067" fill="rgb(36, 36, 42)"></polygon><polygon points="17.058293526759186,75.65560904670156 22.28993609272533,78.96415148032187 22.798849330383668,84.77296238186986 17.567206764417524,81.46441994824954" fill="rgb(36, 36, 42)"></polygon><polygon points="24.34400781247347,79.51275190384442 29.57565037843962,82.82129433746474 30.084563616097956,88.63010523901272 24.85292105013181,85.3215628053924" fill="rgb(36, 36, 42)"></polygon><polygon points="31.629722098187756,83.36989476098728 36.8613646641539,86.6784371946076 37.37027790181224,92.48724809615558 32.1386353358461,89.17870566253526" fill="rgb(36, 36, 42)"></polygon><polygon points="38.91543638390204,87.22703761813014 44.14707894986819,90.53558005175046 44.65599218752653,96.34439095329844 39.42434962156038,93.03584851967813" fill="rgb(36, 36, 42)"></polygon><polygon points="46.20115066961633,91.084180475273 51.43279323558247,94.39272290889332 51.941706473240814,100.2015338104413 46.710063907274666,96.89299137682099" fill="rgb(36, 36, 42)"></polygon><polygon points="53.48686495533062,94.94132333241586 58.71850752129676,98.24986576603617 59.2274207589551,104.05867666758415 53.99577819298895,100.75013423396385" fill="rgb(36, 36, 42)"></polygon><polygon points="9.772579241044902,79.51275190384443 15.004221807011048,82.82129433746474 15.513135044669383,88.63010523901272 10.28149247870324,85.3215628053924" fill="rgb(36, 36, 42)"></polygon><polygon points="17.058293526759186,83.36989476098728 22.289936092725334,86.6784371946076 22.798849330383668,92.48724809615558 17.567206764417527,89.17870566253526" fill="rgb(36, 36, 42)"></polygon><polygon points="24.34400781247347,87.22703761813014 29.57565037843962,90.53558005175046 30.084563616097956,96.34439095329843 24.85292105013181,93.03584851967813" fill="rgb(36, 36, 42)"></polygon><polygon points="31.62972209818776,91.084180475273 36.861364664153896,94.39272290889332 37.37027790181224,100.20153381044129 32.1386353358461,96.89299137682097" fill="rgb(36, 36, 42)"></polygon><polygon points="38.91543638390204,94.94132333241586 44.14707894986819,98.24986576603618 44.65599218752653,104.05867666758414 39.42434962156038,100.75013423396383" fill="rgb(36, 36, 42)"></polygon><polygon points="46.20115066961633,98.79846618955872 51.43279323558247,102.10700862317904 51.941706473240814,107.915819524727 46.71006390727467,104.60727709110668" fill="rgb(36, 36, 42)"></polygon><polygon points="53.48686495533062,102.65560904670158 58.71850752129676,105.96415148032189 59.2274207589551,111.77296238186986 53.99577819298896,108.46441994824954" fill="rgb(36, 36, 42)"></polygon><polygon points="61.28149247870324,59.678437194607596 66.51313504466938,56.369894760987286 66.00422180701105,62.178705662535265 60.7725792410449,65.48724809615557" fill="rgb(255, 128, 31)"></polygon><polygon points="68.56720676441753,55.82129433746474 73.79884933038367,52.512751903844425 73.28993609272533,58.321562805392404 68.05829352675919,61.63010523901272" fill="rgb(235, 66, 66)"></polygon><polygon points="75.85292105013181,51.96415148032188 81.08456361609797,48.65560904670157 80.57565037843962,54.46441994824955 75.34400781247348,57.77296238186986" fill="rgb(235, 66, 66)"></polygon><polygon points="83.1386353358461,48.10700862317903 88.37027790181224,44.79846618955871 87.8613646641539,50.60727709110669 82.62972209818776,53.915819524727006" fill="rgb(235, 66, 66)"></polygon><polygon points="90.42434962156038,44.249865766036166 95.65599218752652,40.941323332415855 95.14707894986819,46.750134233963834 89.91543638390203,50.058676667584145" fill="rgb(235, 66, 66)"></polygon><polygon points="97.71006390727467,40.39272290889331 102.94170647324083,37.084180475272994 102.43279323558248,42.89299137682097 97.20115066961634,46.20153381044129" fill="rgb(235, 66, 66)"></polygon><polygon points="104.99577819298896,36.53558005175046 110.2274207589551,33.22703761813014 109.71850752129676,39.03584851967812 104.48686495533063,42.34439095329843" fill="rgb(255, 128, 31)"></polygon><polygon points="61.28149247870324,67.3927229088933 66.51313504466938,64.084180475273 66.00422180701105,69.89299137682097 60.7725792410449,73.20153381044129" fill="rgb(36, 36, 42)"></polygon><polygon points="68.56720676441753,63.53558005175046 73.79884933038366,60.22703761813014 73.28993609272533,66.03584851967811 68.05829352675919,69.34439095329843" fill="rgb(36, 36, 42)"></polygon><polygon points="75.85292105013181,59.678437194607596 81.08456361609797,56.369894760987286 80.57565037843962,62.178705662535265 75.34400781247348,65.48724809615557" fill="rgb(36, 36, 42)"></polygon><polygon points="83.1386353358461,55.82129433746474 88.37027790181224,52.512751903844425 87.8613646641539,58.321562805392404 82.62972209818776,61.63010523901272" fill="rgb(36, 36, 42)"></polygon><polygon points="90.42434962156038,51.96415148032188 95.65599218752652,48.65560904670157 95.14707894986819,54.46441994824954 89.91543638390203,57.77296238186986" fill="rgb(36, 36, 42)"></polygon><polygon points="97.71006390727467,48.10700862317903 102.94170647324083,44.79846618955871 102.43279323558248,50.60727709110668 97.20115066961634,53.915819524727" fill="rgb(36, 36, 42)"></polygon><polygon points="104.99577819298896,44.249865766036166 110.2274207589551,40.941323332415855 109.71850752129676,46.750134233963834 104.48686495533063,50.05867666758414" fill="rgb(36, 36, 42)"></polygon><polygon points="61.28149247870324,75.10700862317903 66.51313504466938,71.79846618955871 66.00422180701105,77.6072770911067 60.7725792410449,80.915819524727" fill="rgb(36, 36, 42)"></polygon><polygon points="68.56720676441753,71.24986576603617 73.79884933038367,67.94132333241585 73.28993609272533,73.75013423396383 68.05829352675919,77.05867666758415" fill="rgb(36, 36, 42)"></polygon><polygon points="75.85292105013181,67.3927229088933 81.08456361609795,64.084180475273 80.57565037843962,69.89299137682099 75.34400781247348,73.20153381044129" fill="rgb(36, 36, 42)"></polygon><polygon points="83.1386353358461,63.53558005175046 88.37027790181224,60.22703761813014 87.8613646641539,66.03584851967813 82.62972209818776,69.34439095329844" fill="rgb(36, 36, 42)"></polygon><polygon points="90.42434962156038,59.678437194607596 95.65599218752652,56.36989476098728 95.14707894986819,62.178705662535265 89.91543638390203,65.48724809615558" fill="rgb(36, 36, 42)"></polygon><polygon points="97.71006390727467,55.821294337464735 102.94170647324083,52.51275190384442 102.43279323558248,58.321562805392404 97.20115066961634,61.63010523901272" fill="rgb(36, 36, 42)"></polygon><polygon points="104.99577819298896,51.96415148032188 110.2274207589551,48.65560904670157 109.71850752129676,54.46441994824955 104.48686495533062,57.77296238186986" fill="rgb(36, 36, 42)"></polygon><polygon points="61.281492478703235,82.82129433746474 66.51313504466938,79.51275190384443 66.00422180701105,85.3215628053924 60.7725792410449,88.63010523901272" fill="rgb(36, 36, 42)"></polygon><polygon points="68.56720676441753,78.96415148032189 73.79884933038367,75.65560904670157 73.28993609272533,81.46441994824954 68.0582935267592,84.77296238186986" fill="rgb(36, 36, 42)"></polygon><polygon points="75.85292105013181,75.10700862317903 81.08456361609795,71.79846618955872 80.57565037843962,77.60727709110668 75.34400781247348,80.915819524727" fill="rgb(36, 36, 42)"></polygon><polygon points="83.1386353358461,71.24986576603618 88.37027790181223,67.94132333241586 87.8613646641539,73.75013423396382 82.62972209818777,77.05867666758414" fill="rgb(36, 36, 42)"></polygon><polygon points="90.42434962156038,67.39272290889332 95.65599218752652,64.084180475273 95.14707894986819,69.89299137682097 89.91543638390205,73.20153381044128" fill="rgb(36, 36, 42)"></polygon><polygon points="97.71006390727467,63.53558005175045 102.94170647324081,60.22703761813014 102.43279323558248,66.03584851967811 97.20115066961634,69.34439095329843" fill="rgb(36, 36, 42)"></polygon><polygon points="104.99577819298896,59.678437194607596 110.2274207589551,56.369894760987286 109.71850752129676,62.17870566253526 104.48686495533063,65.48724809615557" fill="rgb(36, 36, 42)"></polygon><polygon points="61.28149247870324,90.53558005175046 66.51313504466938,87.22703761813014 66.00422180701105,93.03584851967813 60.7725792410449,96.34439095329843" fill="rgb(36, 36, 42)"></polygon><polygon points="68.56720676441753,86.6784371946076 73.79884933038367,83.36989476098728 73.28993609272533,89.17870566253526 68.05829352675919,92.48724809615558" fill="rgb(36, 36, 42)"></polygon><polygon points="75.85292105013181,82.82129433746474 81.08456361609797,79.51275190384442 80.57565037843962,85.3215628053924 75.34400781247348,88.63010523901272" fill="rgb(36, 36, 42)"></polygon><polygon points="83.1386353358461,78.96415148032187 88.37027790181224,75.65560904670156 87.8613646641539,81.46441994824954 82.62972209818776,84.77296238186986" fill="rgb(36, 36, 42)"></polygon><polygon points="90.42434962156038,75.10700862317901 95.65599218752652,71.79846618955871 95.14707894986819,77.60727709110668 89.91543638390205,80.915819524727" fill="rgb(36, 36, 42)"></polygon><polygon points="97.71006390727467,71.24986576603617 102.94170647324083,67.94132333241585 102.43279323558248,73.75013423396382 97.20115066961634,77.05867666758414" fill="rgb(36, 36, 42)"></polygon><polygon points="104.99577819298896,67.3927229088933 110.2274207589551,64.08418047527299 109.71850752129676,69.89299137682097 104.48686495533063,73.20153381044128" fill="rgb(36, 36, 42)"></polygon><polygon points="61.28149247870324,98.24986576603617 66.51313504466938,94.94132333241586 66.00422180701105,100.75013423396385 60.7725792410449,104.05867666758415" fill="rgb(36, 36, 42)"></polygon><polygon points="68.56720676441753,94.39272290889332 73.79884933038367,91.084180475273 73.28993609272533,96.89299137682099 68.05829352675919,100.2015338104413" fill="rgb(36, 36, 42)"></polygon><polygon points="75.85292105013181,90.53558005175046 81.08456361609795,87.22703761813014 80.57565037843962,93.03584851967813 75.34400781247346,96.34439095329844" fill="rgb(36, 36, 42)"></polygon><polygon points="83.1386353358461,86.6784371946076 88.37027790181224,83.36989476098728 87.8613646641539,89.17870566253526 82.62972209818776,92.48724809615558" fill="rgb(36, 36, 42)"></polygon><polygon points="90.42434962156038,82.82129433746474 95.65599218752652,79.51275190384442 95.14707894986819,85.3215628053924 89.91543638390203,88.63010523901272" fill="rgb(36, 36, 42)"></polygon><polygon points="97.71006390727467,78.96415148032187 102.94170647324083,75.65560904670156 102.43279323558248,81.46441994824954 97.20115066961634,84.77296238186986" fill="rgb(36, 36, 42)"></polygon><polygon points="104.99577819298896,75.10700862317901 110.2274207589551,71.79846618955871 109.71850752129676,77.6072770911067 104.48686495533063,80.915819524727" fill="rgb(36, 36, 42)"></polygon><polygon points="61.28149247870324,105.96415148032189 66.51313504466938,102.65560904670158 66.00422180701105,108.46441994824954 60.7725792410449,111.77296238186986" fill="rgb(36, 36, 42)"></polygon><polygon points="68.56720676441753,102.10700862317904 73.79884933038366,98.79846618955872 73.28993609272533,104.60727709110668 68.0582935267592,107.915819524727" fill="rgb(36, 36, 42)"></polygon><polygon points="75.85292105013181,98.24986576603618 81.08456361609795,94.94132333241586 80.57565037843962,100.75013423396383 75.34400781247348,104.05867666758414" fill="rgb(36, 36, 42)"></polygon><polygon points="83.1386353358461,94.39272290889332 88.37027790181224,91.084180475273 87.8613646641539,96.89299137682097 82.62972209818777,100.20153381044129" fill="rgb(36, 36, 42)"></polygon><polygon points="90.42434962156038,90.53558005175046 95.65599218752652,87.22703761813014 95.14707894986819,93.03584851967813 89.91543638390203,96.34439095329843" fill="rgb(36, 36, 42)"></polygon><polygon points="97.71006390727467,86.6784371946076 102.94170647324083,83.36989476098728 102.43279323558248,89.17870566253526 97.20115066961634,92.48724809615558" fill="rgb(36, 36, 42)"></polygon><polygon points="104.99577819298896,82.82129433746474 110.2274207589551,79.51275190384443 109.71850752129676,85.3215628053924 104.48686495533063,88.63010523901272" fill="rgb(36, 36, 42)"></polygon></g></svg>