<svg xmlns="http://www.w3.org/2000/svg" width="300" height="300" viewBox="0 0 120 118" role="img" aria-labelledby="_R_0_" focusable="false"><title id="_R_0_">Rubik&#x27;s Cube case preview</title><polygon points="59.22,11.22 59.33,11.18 59.45,11.16 59.57,11.15 59.71,11.16 59.85,11.17 60,11.21 60.15,11.17 60.29,11.16 60.43,11.15 60.55,11.16 60.67,11.18 60.78,11.22 110.02,31.59 110.15,31.66 110.26,31.73 110.37,31.83 110.46,31.93 110.55,32.06 110.63,32.2 110.72,32.33 110.79,32.46 110.85,32.59 110.88,32.72 110.9,32.85 110.89,32.98 105.52,82.27 105.5,82.38 105.46,82.48 105.41,82.58 105.33,82.69 105.24,82.79 105.14,82.9 105.09,83.03 105.04,83.16 104.98,83.27 104.91,83.36 104.83,83.44 104.74,83.51 60.87,112.42 60.75,112.49 60.62,112.55 60.48,112.59 60.33,112.61 60.17,112.62 60,112.61 59.83,112.62 59.67,112.61 59.52,112.59 59.38,112.55 59.25,112.49 59.13,112.42 15.26,83.51 15.17,83.44 15.09,83.36 15.02,83.27 14.96,83.16 14.91,83.03 14.86,82.9 14.76,82.79 14.67,82.69 14.59,82.58 14.54,82.48 14.5,82.38 14.48,82.27 9.11,32.98 9.1,32.85 9.12,32.72 9.15,32.59 9.21,32.46 9.28,32.33 9.37,32.2 9.45,32.06 9.54,31.93 9.63,31.83 9.74,31.73 9.85,31.66 9.98,31.59" fill="#121216"></polygon><g stroke-width="0.9" stroke-linejoin="round"><polygon points="59.22,11.22 59.33,11.18 59.45,11.16 59.57,11.15 59.71,11.16 59.85,11.17 60,11.21 60.15,11.17 60.29,11.16 60.43,11.15 60.55,11.16 60.67,11.18 60.78,11.22 66.26,13.48 60.8,15.81 60.57,15.89 60.29,15.94 60,15.95 59.71,15.94 59.43,15.89 59.2,15.81 53.74,13.48" fill="#6e6e78" stroke="#6e6e78"></polygon><polygon points="66.93,13.76 73.05,16.3 68.53,18.29 68.02,18.46 67.42,18.57 66.78,18.61 66.13,18.57 65.53,18.46 65.01,18.29 62.42,17.19 62.03,16.97 61.78,16.71 61.69,16.44 61.77,16.17 62.01,15.92 62.4,15.7" fill="#6e6e78" stroke="#6e6e78"></polygon><polygon points="73.74,16.58 80.07,19.2 75.55,21.26 75.04,21.44 74.44,21.55 73.79,21.59 73.13,21.55 72.51,21.44 71.97,21.26 69.3,20.12 68.89,19.89 68.63,19.63 68.53,19.35 68.6,19.07 68.84,18.81 69.22,18.58" fill="#6e6e78" stroke="#6e6e78"></polygon><polygon points="80.78,19.5 87.32,22.2 82.81,24.33 82.3,24.51 81.69,24.63 81.03,24.67 80.36,24.63 79.72,24.51 79.17,24.33 76.41,23.15 75.98,22.92 75.7,22.64 75.59,22.35 75.65,22.06 75.88,21.79 76.27,21.56" fill="#6e6e78" stroke="#6e6e78"></polygon><polygon points="88.06,22.51 94.81,25.3 90.32,27.5 89.8,27.69 89.19,27.81 88.52,27.85 87.83,27.81 87.18,27.69 86.61,27.5 83.76,26.29 83.31,26.04 83.02,25.76 82.89,25.46 82.95,25.16 83.17,24.88 83.55,24.64" fill="#6e6e78" stroke="#6e6e78"></polygon><polygon points="95.58,25.62 102.57,28.51 98.08,30.79 97.57,30.98 96.95,31.11 96.27,31.15 95.57,31.11 94.9,30.98 94.32,30.79 91.36,29.53 90.9,29.28 90.59,28.99 90.45,28.67 90.49,28.36 90.7,28.07 91.08,27.83" fill="#6e6e78" stroke="#6e6e78"></polygon><polygon points="103.36,28.84 110.02,31.59 110.15,31.66 110.26,31.73 110.37,31.83 110.46,31.93 110.55,32.06 110.63,32.2 110.59,32.22 110.54,32.24 110.48,32.27 110.41,32.31 110.33,32.36 110.23,32.41 104.82,35.27 98.11,32.41 97.89,32.29 97.74,32.15 97.67,32 97.68,31.85 97.78,31.71 97.95,31.59" fill="#6e6e78" stroke="#6e6e78"></polygon><polygon points="53.07,13.76 57.6,15.7 57.99,15.92 58.23,16.17 58.31,16.44 58.22,16.71 57.97,16.97 57.58,17.19 54.99,18.29 54.47,18.46 53.87,18.57 53.22,18.61 52.58,18.57 51.98,18.46 51.47,18.29 46.95,16.3" fill="#6e6e78" stroke="#6e6e78"></polygon><polygon points="58.25,17.48 58.76,17.31 59.36,17.2 60,17.16 60.64,17.2 61.24,17.31 61.75,17.48 64.34,18.58 64.74,18.81 65,19.07 65.09,19.35 65.01,19.63 64.77,19.89 64.38,20.12 61.79,21.26 61.27,21.44 60.66,21.55 60,21.59 59.34,21.55 58.73,21.44 58.21,21.26 55.62,20.12 55.23,19.89 54.99,19.63 54.91,19.35 55,19.07 55.26,18.81 55.66,18.58" fill="#6e6e78" stroke="#6e6e78"></polygon><polygon points="65.07,20.42 65.58,20.24 66.19,20.13 66.84,20.1 67.49,20.13 68.1,20.24 68.63,20.42 71.3,21.56 71.72,21.79 71.99,22.06 72.1,22.35 72.03,22.64 71.79,22.92 71.4,23.15 68.82,24.33 68.29,24.51 67.67,24.63 67.01,24.67 66.34,24.63 65.72,24.51 65.18,24.33 62.5,23.15 62.09,22.92 61.84,22.64 61.75,22.35 61.83,22.06 62.08,21.79 62.48,21.56" fill="#6e6e78" stroke="#6e6e78"></polygon><polygon points="72.12,23.46 72.64,23.28 73.24,23.17 73.9,23.13 74.57,23.17 75.19,23.28 75.74,23.46 78.5,24.64 78.94,24.88 79.22,25.16 79.34,25.46 79.28,25.76 79.05,26.04 78.67,26.29 76.08,27.5 75.56,27.69 74.93,27.81 74.26,27.85 73.58,27.81 72.94,27.69 72.38,27.5 69.62,26.29 69.19,26.04 68.92,25.76 68.82,25.46 68.89,25.16 69.13,24.88 69.53,24.64" fill="#6e6e78" stroke="#6e6e78"></polygon><polygon points="79.41,26.6 79.93,26.42 80.54,26.3 81.21,26.26 81.89,26.3 82.53,26.42 83.09,26.6 85.95,27.83 86.4,28.07 86.7,28.36 86.83,28.67 86.79,28.99 86.57,29.28 86.18,29.53 83.6,30.79 83.07,30.98 82.45,31.11 81.76,31.15 81.07,31.11 80.41,30.98 79.84,30.79 76.97,29.53 76.53,29.28 76.24,28.99 76.13,28.67 76.19,28.36 76.43,28.07 76.82,27.83" fill="#6e6e78" stroke="#6e6e78"></polygon><polygon points="86.95,29.86 87.47,29.66 88.09,29.54 88.77,29.5 89.46,29.54 90.11,29.66 90.69,29.86 93.65,31.12 94.12,31.38 94.44,31.68 94.59,32 94.56,32.32 94.34,32.62 93.96,32.88 91.39,34.19 90.86,34.39 90.23,34.52 89.53,34.56 88.82,34.52 88.15,34.39 87.56,34.19 84.59,32.88 84.13,32.62 83.83,32.32 83.7,32 83.75,31.68 83.98,31.38 84.37,31.12" fill="#6e6e78" stroke="#6e6e78"></polygon><polygon points="94.75,33.23 95.28,33.03 95.9,32.9 96.59,32.86 97.29,32.9 97.97,33.03 98.57,33.23 104.16,35.62 98.09,38.83 92.48,36.36 92,36.09 91.68,35.78 91.53,35.44 91.57,35.11 91.79,34.8 92.18,34.54" fill="#eb4242" stroke="#eb4242"></polygon><polygon points="46.26,16.58 50.78,18.58 51.16,18.81 51.4,19.07 51.47,19.35 51.37,19.63 51.11,19.89 50.7,20.12 48.03,21.26 47.49,21.44 46.87,21.55 46.21,21.59 45.56,21.55 44.96,21.44 44.45,21.26 39.93,19.2" fill="#6e6e78" stroke="#6e6e78"></polygon><polygon points="51.37,20.42 51.9,20.24 52.51,20.13 53.16,20.1 53.81,20.13 54.42,20.24 54.93,20.42 57.52,21.56 57.92,21.79 58.17,22.06 58.25,22.35 58.16,22.64 57.91,22.92 57.5,23.15 54.82,24.33 54.28,24.51 53.66,24.63 52.99,24.67 52.33,24.63 51.71,24.51 51.18,24.33 48.6,23.15 48.21,22.92 47.97,22.64 47.9,22.35 48.01,22.06 48.28,21.79 48.7,21.56" fill="#6e6e78" stroke="#6e6e78"></polygon><polygon points="58.19,23.46 58.72,23.28 59.34,23.17 60,23.13 60.66,23.17 61.28,23.28 61.81,23.46 64.49,24.64 64.9,24.88 65.17,25.16 65.26,25.46 65.18,25.76 64.93,26.04 64.53,26.29 61.85,27.5 61.31,27.69 60.68,27.81 60,27.85 59.32,27.81 58.69,27.69 58.15,27.5 55.47,26.29 55.07,26.04 54.82,25.76 54.74,25.46 54.83,25.16 55.1,24.88 55.51,24.64" fill="#6e6e78" stroke="#6e6e78"></polygon><polygon points="65.24,26.6 65.77,26.42 66.4,26.3 67.07,26.26 67.74,26.3 68.38,26.42 68.92,26.6 71.69,27.83 72.12,28.07 72.4,28.36 72.51,28.67 72.44,28.99 72.2,29.28 71.8,29.53 69.12,30.79 68.58,30.98 67.94,31.11 67.25,31.15 66.56,31.11 65.92,30.98 65.36,30.79 62.59,29.53 62.17,29.28 61.9,28.99 61.81,28.67 61.89,28.36 62.15,28.07 62.57,27.83" fill="#6e6e78" stroke="#6e6e78"></polygon><polygon points="72.54,29.86 73.07,29.66 73.7,29.54 74.38,29.5 75.07,29.54 75.72,29.66 76.28,29.86 79.15,31.12 79.6,31.38 79.89,31.68 80.02,32 79.96,32.32 79.72,32.62 79.32,32.88 76.65,34.19 76.11,34.39 75.46,34.52 74.76,34.56 74.06,34.52 73.4,34.39 72.82,34.19 69.95,32.88 69.51,32.62 69.23,32.32 69.12,32 69.2,31.68 69.45,31.38 69.86,31.12" fill="#6e6e78" stroke="#6e6e78"></polygon><polygon points="80.09,33.23 80.63,33.03 81.26,32.9 81.95,32.86 82.66,32.9 83.32,33.03 83.9,33.23 86.87,34.54 87.34,34.8 87.65,35.11 87.79,35.44 87.75,35.78 87.52,36.09 87.12,36.36 84.45,37.71 83.91,37.92 83.26,38.06 82.55,38.1 81.83,38.06 81.15,37.92 80.55,37.71 77.58,36.36 77.12,36.09 76.82,35.78 76.7,35.44 76.77,35.11 77.01,34.8 77.42,34.54" fill="#6e6e78" stroke="#6e6e78"></polygon><polygon points="87.91,36.72 88.45,36.51 89.09,36.38 89.8,36.33 90.51,36.38 91.19,36.51 91.79,36.72 97.41,39.2 91.11,42.53 85.49,39.96 85.01,39.68 84.69,39.36 84.56,39.01 84.61,38.67 84.84,38.35 85.25,38.07" fill="#eb4242" stroke="#eb4242"></polygon><polygon points="39.22,19.5 43.73,21.56 44.12,21.79 44.35,22.06 44.41,22.35 44.3,22.64 44.02,22.92 43.59,23.15 40.83,24.33 40.28,24.51 39.64,24.63 38.97,24.67 38.31,24.63 37.7,24.51 37.19,24.33 32.68,22.2" fill="#6e6e78" stroke="#6e6e78"></polygon><polygon points="44.26,23.46 44.81,23.28 45.43,23.17 46.1,23.13 46.76,23.17 47.36,23.28 47.88,23.46 50.47,24.64 50.87,24.88 51.11,25.16 51.18,25.46 51.08,25.76 50.81,26.04 50.38,26.29 47.62,27.5 47.06,27.69 46.42,27.81 45.74,27.85 45.07,27.81 44.44,27.69 43.92,27.5 41.33,26.29 40.95,26.04 40.72,25.76 40.66,25.46 40.78,25.16 41.06,24.88 41.5,24.64" fill="#6e6e78" stroke="#6e6e78"></polygon><polygon points="51.08,26.6 51.62,26.42 52.26,26.3 52.93,26.26 53.6,26.3 54.23,26.42 54.76,26.6 57.43,27.83 57.85,28.07 58.11,28.36 58.19,28.67 58.1,28.99 57.83,29.28 57.41,29.53 54.64,30.79 54.08,30.98 53.44,31.11 52.75,31.15 52.06,31.11 51.42,30.98 50.88,30.79 48.2,29.53 47.8,29.28 47.56,28.99 47.49,28.67 47.6,28.36 47.88,28.07 48.31,27.83" fill="#6e6e78" stroke="#6e6e78"></polygon><polygon points="58.13,29.86 58.68,29.66 59.32,29.54 60,29.5 60.68,29.54 61.32,29.66 61.87,29.86 64.64,31.12 65.07,31.38 65.35,31.68 65.45,32 65.37,32.32 65.11,32.62 64.68,32.88 61.92,34.19 61.36,34.39 60.7,34.52 60,34.56 59.3,34.52 58.64,34.39 58.08,34.19 55.32,32.88 54.89,32.62 54.63,32.32 54.55,32 54.65,31.68 54.93,31.38 55.36,31.12" fill="#6e6e78" stroke="#6e6e78"></polygon><polygon points="65.43,33.23 65.98,33.03 66.62,32.9 67.32,32.86 68.02,32.9 68.67,33.03 69.24,33.23 72.11,34.54 72.55,34.8 72.85,35.11 72.96,35.44 72.89,35.78 72.64,36.09 72.22,36.36 69.45,37.71 68.89,37.92 68.23,38.06 67.52,38.1 66.8,38.06 66.13,37.92 65.55,37.71 62.68,36.36 62.24,36.09 61.97,35.78 61.87,35.44 61.96,35.11 62.23,34.8 62.66,34.54" fill="#6e6e78" stroke="#6e6e78"></polygon><polygon points="72.99,36.72 73.54,36.51 74.19,36.38 74.9,36.33 75.61,36.38 76.28,36.51 76.87,36.72 79.84,38.07 80.31,38.35 80.62,38.67 80.75,39.01 80.69,39.36 80.44,39.68 80.03,39.96 77.26,41.37 76.7,41.59 76.03,41.72 75.31,41.77 74.58,41.72 73.89,41.59 73.29,41.37 70.32,39.96 69.86,39.68 69.57,39.36 69.45,39.01 69.53,38.67 69.79,38.35 70.22,38.07" fill="#6e6e78" stroke="#6e6e78"></polygon><polygon points="80.82,40.33 81.38,40.12 82.04,39.98 82.75,39.94 83.48,39.98 84.17,40.12 84.78,40.33 90.4,42.9 83.87,46.36 78.23,43.7 77.76,43.41 77.45,43.08 77.32,42.72 77.39,42.36 77.64,42.03 78.06,41.74" fill="#eb4242" stroke="#eb4242"></polygon><polygon points="31.94,22.51 36.45,24.64 36.83,24.88 37.05,25.16 37.11,25.46 36.98,25.76 36.69,26.04 36.24,26.29 33.39,27.5 32.82,27.69 32.17,27.81 31.48,27.85 30.81,27.81 30.2,27.69 29.68,27.5 25.19,25.3" fill="#6e6e78" stroke="#6e6e78"></polygon><polygon points="36.91,26.6 37.47,26.42 38.11,26.3 38.79,26.26 39.46,26.3 40.07,26.42 40.59,26.6 43.18,27.83 43.57,28.07 43.81,28.36 43.87,28.67 43.76,28.99 43.47,29.28 43.03,29.53 40.16,30.79 39.59,30.98 38.93,31.11 38.24,31.15 37.55,31.11 36.93,30.98 36.4,30.79 33.82,29.53 33.43,29.28 33.21,28.99 33.17,28.67 33.3,28.36 33.6,28.07 34.05,27.83" fill="#6e6e78" stroke="#6e6e78"></polygon><polygon points="43.72,29.86 44.28,29.66 44.93,29.54 45.62,29.5 46.3,29.54 46.93,29.66 47.46,29.86 50.14,31.12 50.55,31.38 50.8,31.68 50.88,32 50.77,32.32 50.49,32.62 50.05,32.88 47.18,34.19 46.6,34.39 45.94,34.52 45.24,34.56 44.54,34.52 43.89,34.39 43.35,34.19 40.68,32.88 40.28,32.62 40.04,32.32 39.98,32 40.11,31.68 40.4,31.38 40.85,31.12" fill="#6e6e78" stroke="#6e6e78"></polygon><polygon points="50.76,33.23 51.33,33.03 51.98,32.9 52.68,32.86 53.38,32.9 54.02,33.03 54.57,33.23 57.34,34.54 57.77,34.8 58.04,35.11 58.13,35.44 58.03,35.78 57.76,36.09 57.32,36.36 54.45,37.71 53.87,37.92 53.2,38.06 52.48,38.1 51.77,38.06 51.11,37.92 50.55,37.71 47.78,36.36 47.36,36.09 47.11,35.78 47.04,35.44 47.15,35.11 47.45,34.8 47.89,34.54" fill="#6e6e78" stroke="#6e6e78"></polygon><polygon points="58.06,36.72 58.63,36.51 59.29,36.38 60,36.33 60.71,36.38 61.37,36.51 61.94,36.72 64.81,38.07 65.26,38.35 65.54,38.67 65.65,39.01 65.56,39.36 65.29,39.68 64.85,39.96 61.99,41.37 61.41,41.59 60.73,41.72 60,41.77 59.27,41.72 58.59,41.59 58.01,41.37 55.15,39.96 54.71,39.68 54.44,39.36 54.35,39.01 54.46,38.67 54.74,38.35 55.19,38.07" fill="#6e6e78" stroke="#6e6e78"></polygon><polygon points="65.62,40.33 66.2,40.12 66.86,39.98 67.58,39.94 68.31,39.98 68.99,40.12 69.58,40.33 72.55,41.74 73.02,42.03 73.32,42.36 73.44,42.72 73.37,43.08 73.1,43.41 72.67,43.7 69.8,45.16 69.22,45.38 68.54,45.53 67.8,45.57 67.05,45.53 66.36,45.38 65.76,45.16 62.78,43.7 62.33,43.41 62.04,43.08 61.94,42.72 62.03,42.36 62.31,42.03 62.76,41.74" fill="#6e6e78" stroke="#6e6e78"></polygon><polygon points="73.47,44.08 74.04,43.86 74.72,43.72 75.45,43.67 76.19,43.72 76.89,43.86 77.49,44.08 83.13,46.75 76.35,50.34 70.71,47.58 70.23,47.28 69.93,46.93 69.81,46.56 69.89,46.19 70.16,45.84 70.6,45.54" fill="#eb4242" stroke="#eb4242"></polygon><polygon points="24.42,25.62 28.92,27.83 29.3,28.07 29.51,28.36 29.55,28.67 29.41,28.99 29.1,29.28 28.64,29.53 25.68,30.79 25.1,30.98 24.43,31.11 23.73,31.15 23.05,31.11 22.43,30.98 21.92,30.79 17.43,28.51" fill="#6e6e78" stroke="#6e6e78"></polygon><polygon points="29.31,29.86 29.89,29.66 30.54,29.54 31.23,29.5 31.91,29.54 32.53,29.66 33.05,29.86 35.63,31.12 36.02,31.38 36.25,31.68 36.3,32 36.17,32.32 35.87,32.62 35.41,32.88 32.44,34.19 31.85,34.39 31.18,34.52 30.47,34.56 29.77,34.52 29.14,34.39 28.61,34.19 26.04,32.88 25.66,32.62 25.44,32.32 25.41,32 25.56,31.68 25.88,31.38 26.35,31.12" fill="#6e6e78" stroke="#6e6e78"></polygon><polygon points="36.1,33.23 36.68,33.03 37.34,32.9 38.05,32.86 38.74,32.9 39.37,33.03 39.91,33.23 42.58,34.54 42.99,34.8 43.23,35.11 43.3,35.44 43.18,35.78 42.88,36.09 42.42,36.36 39.45,37.71 38.85,37.92 38.17,38.06 37.45,38.1 36.74,38.06 36.09,37.92 35.55,37.71 32.88,36.36 32.48,36.09 32.25,35.78 32.21,35.44 32.35,35.11 32.66,34.8 33.13,34.54" fill="#6e6e78" stroke="#6e6e78"></polygon><polygon points="43.13,36.72 43.72,36.51 44.39,36.38 45.1,36.33 45.81,36.38 46.46,36.51 47.01,36.72 49.78,38.07 50.21,38.35 50.47,38.67 50.55,39.01 50.43,39.36 50.14,39.68 49.68,39.96 46.71,41.37 46.11,41.59 45.42,41.72 44.69,41.77 43.97,41.72 43.3,41.59 42.74,41.37 39.97,39.96 39.56,39.68 39.31,39.36 39.25,39.01 39.38,38.67 39.69,38.35 40.16,38.07" fill="#6e6e78" stroke="#6e6e78"></polygon><polygon points="50.42,40.33 51.01,40.12 51.69,39.98 52.42,39.94 53.14,39.98 53.8,40.12 54.38,40.33 57.24,41.74 57.69,42.03 57.97,42.36 58.06,42.72 57.96,43.08 57.67,43.41 57.22,43.7 54.24,45.16 53.64,45.38 52.95,45.53 52.2,45.57 51.46,45.53 50.78,45.38 50.2,45.16 47.33,43.7 46.9,43.41 46.63,43.08 46.56,42.72 46.68,42.36 46.98,42.03 47.45,41.74" fill="#6e6e78" stroke="#6e6e78"></polygon><polygon points="57.99,44.08 58.58,43.86 59.26,43.72 60,43.67 60.74,43.72 61.42,43.86 62.01,44.08 64.99,45.54 65.45,45.84 65.75,46.19 65.86,46.56 65.77,46.93 65.49,47.28 65.04,47.58 62.06,49.09 61.46,49.33 60.76,49.47 60,49.53 59.24,49.47 58.54,49.33 57.94,49.09 54.96,47.58 54.51,47.28 54.23,46.93 54.14,46.56 54.25,46.19 54.55,45.84 55.01,45.54" fill="#6e6e78" stroke="#6e6e78"></polygon><polygon points="65.84,47.98 66.43,47.74 67.12,47.6 67.87,47.55 68.62,47.6 69.33,47.74 69.94,47.98 75.58,50.75 68.54,54.48 62.89,51.61 62.42,51.3 62.12,50.93 62.01,50.55 62.11,50.16 62.4,49.8 62.86,49.49" fill="#eb4242" stroke="#eb4242"></polygon><polygon points="16.64,28.84 22.05,31.59 22.22,31.71 22.32,31.85 22.33,32 22.26,32.15 22.11,32.29 21.89,32.41 15.18,35.27 9.77,32.41 9.67,32.36 9.59,32.31 9.52,32.27 9.46,32.24 9.41,32.22 9.37,32.2 9.45,32.06 9.54,31.93 9.63,31.83 9.74,31.73 9.85,31.66 9.98,31.59" fill="#6e6e78" stroke="#6e6e78"></polygon><polygon points="21.43,33.23 22.03,33.03 22.71,32.9 23.41,32.86 24.1,32.9 24.72,33.03 25.25,33.23 27.82,34.54 28.21,34.8 28.43,35.11 28.47,35.44 28.32,35.78 28,36.09 27.52,36.36 21.91,38.83 15.84,35.62" fill="#6e6e78" stroke="#6e6e78"></polygon><polygon points="28.21,36.72 28.81,36.51 29.49,36.38 30.2,36.33 30.91,36.38 31.55,36.51 32.09,36.72 34.75,38.07 35.16,38.35 35.39,38.67 35.44,39.01 35.31,39.36 34.99,39.68 34.51,39.96 28.89,42.53 22.59,39.2" fill="#6e6e78" stroke="#6e6e78"></polygon><polygon points="35.22,40.33 35.83,40.12 36.52,39.98 37.25,39.94 37.96,39.98 38.62,40.12 39.18,40.33 41.94,41.74 42.36,42.03 42.61,42.36 42.68,42.72 42.55,43.08 42.24,43.41 41.77,43.7 36.13,46.36 29.6,42.9" fill="#6e6e78" stroke="#6e6e78"></polygon><polygon points="42.51,44.08 43.11,43.86 43.81,43.72 44.55,43.67 45.28,43.72 45.96,43.86 46.53,44.08 49.4,45.54 49.84,45.84 50.11,46.19 50.19,46.56 50.07,46.93 49.77,47.28 49.29,47.58 43.65,50.34 36.87,46.75" fill="#6e6e78" stroke="#6e6e78"></polygon><polygon points="50.06,47.98 50.67,47.74 51.38,47.6 52.13,47.55 52.88,47.6 53.57,47.74 54.16,47.98 57.14,49.49 57.6,49.8 57.89,50.16 57.99,50.55 57.88,50.93 57.58,51.3 57.11,51.61 51.46,54.48 44.42,50.75" fill="#6e6e78" stroke="#6e6e78"></polygon><polygon points="59.04,51.44 59.32,51.33 59.65,51.26 60,51.24 60.35,51.26 60.68,51.33 60.96,51.44 67.74,54.9 60.99,58.47 60.86,58.55 60.71,58.63 60.55,58.71 60.38,58.8 60.19,58.9 60,59 59.81,58.9 59.62,58.8 59.45,58.71 59.29,58.63 59.14,58.55 59.01,58.47 52.26,54.9" fill="#ece8e2" stroke="#ece8e2"></polygon><polygon points="9.11,32.98 9.1,32.85 9.12,32.72 9.15,32.59 9.21,32.46 9.28,32.33 9.37,32.2 9.41,32.22 9.46,32.24 9.52,32.27 9.59,32.31 9.67,32.36 9.77,32.41 15.18,35.27 15.83,42.03 15.83,42.27 15.77,42.46 15.67,42.59 15.52,42.65 15.34,42.64 15.14,42.56 9.83,39.65" fill="#6e6e78" stroke="#6e6e78"></polygon><polygon points="15.84,35.62 21.91,38.83 22.38,44.52 22.36,45.04 22.23,45.45 21.99,45.74 21.65,45.87 21.25,45.85 20.81,45.67 18.28,44.29 17.83,43.97 17.4,43.54 17.01,43.01 16.7,42.43 16.48,41.84 16.38,41.26" fill="#6e6e78" stroke="#6e6e78"></polygon><polygon points="22.59,39.2 28.89,42.53 29.28,48.28 29.25,48.8 29.11,49.21 28.85,49.49 28.5,49.62 28.07,49.6 27.61,49.41 25,47.98 24.53,47.65 24.09,47.21 23.69,46.67 23.38,46.08 23.16,45.48 23.06,44.89" fill="#6e6e78" stroke="#6e6e78"></polygon><polygon points="29.6,42.9 36.13,46.36 36.43,52.17 36.4,52.69 36.24,53.11 35.96,53.39 35.59,53.52 35.15,53.48 34.67,53.29 31.96,51.8 31.48,51.46 31.02,51.01 30.62,50.46 30.3,49.86 30.08,49.25 29.98,48.66" fill="#6e6e78" stroke="#6e6e78"></polygon><polygon points="36.87,46.75 43.65,50.34 43.86,56.21 43.81,56.73 43.64,57.15 43.34,57.43 42.95,57.55 42.49,57.51 41.99,57.31 39.18,55.76 38.68,55.42 38.21,54.95 37.8,54.39 37.47,53.78 37.26,53.16 37.16,52.57" fill="#6e6e78" stroke="#6e6e78"></polygon><polygon points="44.42,50.75 51.46,54.48 51.57,60.4 51.52,60.93 51.32,61.35 51.01,61.63 50.6,61.74 50.11,61.69 49.59,61.48 46.67,59.88 46.15,59.52 45.67,59.04 45.25,58.47 44.92,57.85 44.71,57.22 44.62,56.62" fill="#6e6e78" stroke="#6e6e78"></polygon><polygon points="52.26,54.9 59.01,58.47 59.14,58.55 59.29,58.63 59.45,58.71 59.62,58.8 59.81,58.9 60,59 60,59.2 60,59.4 60,59.58 60,59.75 60,59.91 60,60.05 60,67.2 53.34,63.54 53.1,63.37 52.87,63.15 52.67,62.88 52.52,62.59 52.42,62.29 52.38,62.01" fill="#eb4242" stroke="#eb4242"></polygon><polygon points="9.92,40.44 14.32,42.86 14.76,43.17 15.18,43.6 15.56,44.12 15.87,44.7 16.09,45.29 16.2,45.85 16.49,48.83 16.48,49.32 16.36,49.72 16.13,49.98 15.82,50.11 15.44,50.08 15.02,49.9 10.68,47.44" fill="#3d7ce0" stroke="#3d7ce0"></polygon><polygon points="16.85,46.21 16.85,45.71 16.98,45.31 17.2,45.03 17.53,44.9 17.92,44.92 18.35,45.09 20.87,46.48 21.33,46.8 21.77,47.24 22.16,47.77 22.47,48.35 22.69,48.95 22.79,49.52 23.04,52.53 23.02,53.02 22.89,53.42 22.65,53.68 22.32,53.8 21.93,53.77 21.49,53.59 19,52.17 18.56,51.86 18.14,51.42 17.76,50.91 17.45,50.34 17.24,49.75 17.13,49.2" fill="#3d7ce0" stroke="#3d7ce0"></polygon><polygon points="23.46,49.89 23.48,49.39 23.61,48.99 23.86,48.71 24.2,48.58 24.61,48.6 25.06,48.78 27.67,50.22 28.14,50.55 28.59,51 28.99,51.54 29.31,52.14 29.52,52.75 29.62,53.32 29.83,56.36 29.8,56.86 29.66,57.25 29.4,57.51 29.06,57.63 28.64,57.59 28.19,57.4 25.61,55.93 25.16,55.61 24.72,55.16 24.33,54.64 24.02,54.06 23.81,53.47 23.71,52.91" fill="#3d7ce0" stroke="#3d7ce0"></polygon><polygon points="30.32,53.71 30.34,53.2 30.49,52.79 30.75,52.52 31.11,52.39 31.54,52.42 32.01,52.61 34.72,54.11 35.2,54.45 35.67,54.91 36.07,55.46 36.39,56.06 36.61,56.68 36.7,57.26 36.86,60.33 36.83,60.83 36.67,61.22 36.4,61.48 36.03,61.59 35.6,61.55 35.13,61.35 32.46,59.83 31.99,59.49 31.54,59.04 31.14,58.5 30.83,57.91 30.62,57.32 30.52,56.75" fill="#3d7ce0" stroke="#3d7ce0"></polygon><polygon points="37.42,57.66 37.46,57.15 37.62,56.74 37.9,56.47 38.28,56.35 38.73,56.39 39.22,56.59 42.02,58.13 42.53,58.48 43.01,58.96 43.42,59.52 43.75,60.14 43.96,60.76 44.05,61.35 44.16,64.44 44.11,64.95 43.94,65.34 43.65,65.6 43.27,65.71 42.81,65.65 42.32,65.44 39.56,63.87 39.07,63.52 38.61,63.06 38.2,62.51 37.88,61.91 37.67,61.3 37.58,60.73" fill="#3d7ce0" stroke="#3d7ce0"></polygon><polygon points="44.8,61.77 44.84,61.25 45.02,60.84 45.32,60.57 45.72,60.45 46.18,60.5 46.69,60.71 49.61,62.32 50.13,62.68 50.63,63.16 51.05,63.74 51.38,64.36 51.59,65 51.67,65.59 51.73,68.71 51.68,69.22 51.49,69.62 51.18,69.87 50.77,69.97 50.3,69.91 49.79,69.69 46.92,68.06 46.41,67.7 45.94,67.22 45.52,66.66 45.2,66.06 44.99,65.44 44.9,64.86" fill="#3d7ce0" stroke="#3d7ce0"></polygon><polygon points="52.45,66.02 52.51,65.5 52.71,65.1 53.02,64.83 53.44,64.72 53.93,64.77 54.46,64.99 60,68.04 60,75.5 54.56,72.4 54.03,72.04 53.54,71.55 53.12,70.98 52.79,70.36 52.58,69.73 52.51,69.15" fill="#6e6e78" stroke="#6e6e78"></polygon><polygon points="10.77,48.2 15.1,50.67 15.53,50.99 15.95,51.41 16.32,51.93 16.63,52.49 16.84,53.07 16.95,53.61 17.22,56.49 17.22,56.97 17.1,57.34 16.88,57.59 16.57,57.7 16.19,57.66 15.78,57.48 11.5,54.97" fill="#3d7ce0" stroke="#3d7ce0"></polygon><polygon points="17.59,53.98 17.59,53.5 17.71,53.11 17.94,52.85 18.26,52.73 18.64,52.77 19.07,52.95 21.56,54.36 22,54.68 22.43,55.12 22.82,55.64 23.12,56.22 23.34,56.8 23.44,57.35 23.68,60.26 23.66,60.73 23.53,61.11 23.29,61.36 22.97,61.46 22.58,61.42 22.15,61.23 19.7,59.79 19.27,59.47 18.85,59.04 18.48,58.53 18.17,57.97 17.96,57.4 17.86,56.86" fill="#3d7ce0" stroke="#3d7ce0"></polygon><polygon points="24.1,57.73 24.12,57.25 24.25,56.86 24.49,56.6 24.82,56.49 25.23,56.53 25.67,56.71 28.24,58.18 28.71,58.51 29.15,58.96 29.54,59.49 29.85,60.08 30.06,60.67 30.16,61.22 30.36,64.15 30.33,64.63 30.19,65.01 29.94,65.25 29.6,65.35 29.19,65.3 28.74,65.11 26.21,63.62 25.76,63.29 25.33,62.85 24.95,62.33 24.64,61.76 24.44,61.19 24.34,60.64" fill="#3d7ce0" stroke="#3d7ce0"></polygon><polygon points="30.84,61.62 30.87,61.13 31.02,60.74 31.27,60.49 31.62,60.38 32.05,60.42 32.51,60.62 35.17,62.14 35.65,62.48 36.11,62.94 36.5,63.48 36.82,64.07 37.03,64.67 37.12,65.23 37.28,68.19 37.24,68.67 37.09,69.05 36.82,69.29 36.46,69.39 36.03,69.33 35.57,69.12 32.95,67.58 32.48,67.24 32.04,66.79 31.65,66.26 31.34,65.68 31.13,65.1 31.04,64.55" fill="#3d7ce0" stroke="#3d7ce0"></polygon><polygon points="37.83,65.64 37.87,65.15 38.03,64.77 38.3,64.51 38.67,64.4 39.11,64.46 39.59,64.66 42.35,66.24 42.85,66.59 43.32,67.06 43.73,67.62 44.05,68.22 44.26,68.82 44.34,69.39 44.45,72.37 44.4,72.86 44.23,73.23 43.95,73.48 43.57,73.57 43.12,73.5 42.64,73.28 39.92,71.68 39.44,71.33 38.99,70.87 38.59,70.33 38.28,69.75 38.07,69.16 37.98,68.6" fill="#3d7ce0" stroke="#3d7ce0"></polygon><polygon points="45.08,69.82 45.12,69.32 45.3,68.94 45.59,68.68 45.98,68.58 46.44,68.64 46.94,68.86 49.81,70.49 50.32,70.86 50.8,71.34 51.22,71.9 51.54,72.52 51.75,73.13 51.83,73.71 51.89,76.71 51.83,77.2 51.64,77.58 51.34,77.81 50.94,77.9 50.48,77.82 49.97,77.6 47.16,75.94 46.66,75.58 46.19,75.11 45.79,74.56 45.47,73.96 45.26,73.36 45.18,72.8" fill="#3d7ce0" stroke="#3d7ce0"></polygon><polygon points="52.59,74.15 52.65,73.65 52.84,73.26 53.15,73.01 53.56,72.92 54.05,72.99 54.57,73.21 60,76.31 60,83.49 54.66,80.35 54.14,79.98 53.66,79.5 53.25,78.93 52.93,78.33 52.72,77.72 52.65,77.16" fill="#6e6e78" stroke="#6e6e78"></polygon><polygon points="11.59,55.7 15.85,58.22 16.28,58.54 16.69,58.96 17.06,59.47 17.36,60.02 17.57,60.58 17.67,61.11 17.94,63.9 17.93,64.35 17.81,64.71 17.59,64.94 17.29,65.04 16.92,64.99 16.51,64.8 12.3,62.25" fill="#3d7ce0" stroke="#3d7ce0"></polygon><polygon points="18.3,61.49 18.31,61.02 18.43,60.66 18.65,60.41 18.97,60.31 19.35,60.35 19.77,60.53 22.21,61.98 22.65,62.3 23.08,62.73 23.45,63.25 23.76,63.81 23.96,64.38 24.06,64.91 24.29,67.72 24.28,68.18 24.15,68.54 23.92,68.77 23.6,68.86 23.21,68.81 22.79,68.61 20.38,67.15 19.95,66.83 19.53,66.4 19.17,65.9 18.87,65.35 18.67,64.8 18.57,64.27" fill="#3d7ce0" stroke="#3d7ce0"></polygon><polygon points="24.71,65.3 24.73,64.84 24.86,64.47 25.1,64.23 25.43,64.12 25.83,64.17 26.27,64.37 28.8,65.86 29.25,66.19 29.69,66.64 30.07,67.16 30.38,67.74 30.58,68.31 30.68,68.85 30.87,71.68 30.84,72.14 30.7,72.5 30.46,72.73 30.12,72.81 29.72,72.75 29.28,72.55 26.78,71.04 26.34,70.71 25.92,70.27 25.54,69.76 25.25,69.2 25.04,68.64 24.94,68.11" fill="#3d7ce0" stroke="#3d7ce0"></polygon><polygon points="31.35,69.25 31.38,68.78 31.52,68.41 31.78,68.17 32.12,68.08 32.54,68.13 32.99,68.34 35.61,69.88 36.08,70.23 36.53,70.68 36.92,71.22 37.23,71.8 37.44,72.38 37.53,72.93 37.68,75.78 37.64,76.24 37.49,76.6 37.22,76.83 36.87,76.91 36.45,76.84 35.99,76.62 33.41,75.06 32.96,74.72 32.52,74.27 32.14,73.75 31.84,73.18 31.63,72.62 31.54,72.08" fill="#3d7ce0" stroke="#3d7ce0"></polygon><polygon points="38.23,73.34 38.26,72.87 38.42,72.5 38.69,72.26 39.05,72.17 39.49,72.24 39.96,72.45 42.67,74.05 43.16,74.4 43.62,74.87 44.02,75.42 44.33,76.01 44.54,76.6 44.62,77.15 44.73,80.02 44.68,80.49 44.51,80.85 44.23,81.07 43.86,81.14 43.42,81.07 42.95,80.84 40.28,79.22 39.8,78.87 39.36,78.42 38.97,77.88 38.66,77.31 38.46,76.73 38.37,76.2" fill="#3d7ce0" stroke="#3d7ce0"></polygon><polygon points="45.35,77.58 45.39,77.1 45.57,76.74 45.85,76.5 46.24,76.42 46.69,76.49 47.18,76.71 49.99,78.37 50.5,78.74 50.97,79.21 51.38,79.77 51.7,80.37 51.9,80.97 51.98,81.53 52.03,84.42 51.98,84.89 51.8,85.25 51.5,85.47 51.11,85.54 50.65,85.45 50.16,85.22 47.39,83.54 46.9,83.18 46.44,82.71 46.04,82.16 45.73,81.58 45.53,81 45.45,80.46" fill="#3d7ce0" stroke="#3d7ce0"></polygon><polygon points="52.73,81.97 52.79,81.49 52.98,81.13 53.28,80.9 53.68,80.82 54.16,80.9 54.67,81.13 60,84.28 60,91.19 54.76,88.01 54.25,87.64 53.78,87.16 53.37,86.6 53.06,86.01 52.86,85.42 52.78,84.87" fill="#6e6e78" stroke="#6e6e78"></polygon><polygon points="12.38,62.96 16.58,65.52 17,65.84 17.41,66.26 17.77,66.76 18.06,67.3 18.27,67.85 18.37,68.36 18.63,71.05 18.62,71.49 18.5,71.84 18.29,72.05 17.99,72.14 17.62,72.08 17.22,71.89 13.07,69.29" fill="#3d7ce0" stroke="#3d7ce0"></polygon><polygon points="18.99,68.74 19,68.3 19.12,67.95 19.34,67.72 19.65,67.62 20.02,67.68 20.44,67.87 22.85,69.33 23.28,69.66 23.7,70.09 24.07,70.6 24.37,71.15 24.57,71.7 24.67,72.22 24.89,74.94 24.87,75.38 24.75,75.72 24.52,75.94 24.2,76.02 23.82,75.95 23.4,75.75 21.03,74.27 20.6,73.94 20.2,73.52 19.84,73.02 19.55,72.49 19.35,71.95 19.25,71.44" fill="#3d7ce0" stroke="#3d7ce0"></polygon><polygon points="25.31,72.62 25.33,72.17 25.46,71.82 25.69,71.59 26.02,71.5 26.41,71.56 26.84,71.76 29.33,73.28 29.78,73.61 30.21,74.06 30.58,74.57 30.88,75.13 31.09,75.69 31.18,76.22 31.37,78.95 31.34,79.4 31.2,79.74 30.95,79.95 30.62,80.02 30.23,79.95 29.79,79.74 27.34,78.21 26.9,77.88 26.49,77.44 26.12,76.94 25.83,76.39 25.62,75.84 25.53,75.33" fill="#3d7ce0" stroke="#3d7ce0"></polygon><polygon points="31.84,76.62 31.87,76.17 32.01,75.82 32.26,75.6 32.6,75.52 33.01,75.58 33.46,75.79 36.04,77.36 36.5,77.7 36.94,78.16 37.32,78.69 37.63,79.25 37.83,79.82 37.92,80.35 38.06,83.1 38.03,83.55 37.88,83.89 37.62,84.1 37.27,84.17 36.85,84.09 36.4,83.87 33.87,82.28 33.42,81.94 32.99,81.5 32.61,80.98 32.32,80.43 32.12,79.88 32.02,79.36" fill="#3d7ce0" stroke="#3d7ce0"></polygon><polygon points="38.6,80.77 38.64,80.32 38.8,79.97 39.06,79.75 39.42,79.67 39.85,79.74 40.31,79.96 42.98,81.59 43.46,81.94 43.91,82.4 44.3,82.94 44.61,83.52 44.81,84.09 44.9,84.63 45,87.4 44.95,87.85 44.79,88.19 44.51,88.4 44.14,88.46 43.71,88.37 43.25,88.14 40.62,86.5 40.15,86.15 39.72,85.7 39.33,85.17 39.03,84.61 38.83,84.05 38.75,83.53" fill="#3d7ce0" stroke="#3d7ce0"></polygon><polygon points="45.61,85.06 45.65,84.61 45.82,84.26 46.1,84.04 46.48,83.97 46.93,84.05 47.41,84.28 50.17,85.96 50.67,86.33 51.13,86.8 51.54,87.35 51.85,87.94 52.05,88.52 52.12,89.06 52.18,91.85 52.12,92.31 51.94,92.64 51.65,92.85 51.26,92.9 50.81,92.81 50.33,92.57 47.61,90.87 47.13,90.51 46.68,90.04 46.29,89.51 45.98,88.93 45.78,88.37 45.7,87.84" fill="#3d7ce0" stroke="#3d7ce0"></polygon><polygon points="52.86,89.51 52.92,89.05 53.1,88.71 53.4,88.49 53.8,88.43 54.26,88.52 54.77,88.76 60,91.94 60,98.61 54.85,95.39 54.35,95.02 53.89,94.54 53.49,93.99 53.18,93.41 52.98,92.84 52.91,92.31" fill="#6e6e78" stroke="#6e6e78"></polygon><polygon points="13.14,69.99 17.29,72.58 17.7,72.9 18.1,73.32 18.46,73.81 18.75,74.34 18.95,74.88 19.05,75.38 19.3,77.98 19.29,78.41 19.17,78.73 18.96,78.94 18.66,79.01 18.3,78.94 17.9,78.74 13.81,76.12" fill="#3d7ce0" stroke="#3d7ce0"></polygon><polygon points="19.66,75.76 19.67,75.33 19.79,75 20.01,74.78 20.31,74.7 20.68,74.77 21.09,74.96 23.46,76.45 23.89,76.78 24.3,77.21 24.66,77.71 24.96,78.25 25.16,78.79 25.25,79.29 25.47,81.92 25.45,82.34 25.32,82.67 25.1,82.87 24.78,82.94 24.41,82.86 24,82.65 21.66,81.15 21.24,80.83 20.84,80.41 20.49,79.92 20.2,79.39 20,78.86 19.91,78.37" fill="#3d7ce0" stroke="#3d7ce0"></polygon><polygon points="25.88,79.69 25.9,79.26 26.03,78.92 26.26,78.71 26.58,78.64 26.97,78.7 27.39,78.91 29.84,80.45 30.29,80.78 30.71,81.22 31.08,81.73 31.37,82.28 31.57,82.83 31.66,83.34 31.84,85.98 31.82,86.41 31.68,86.73 31.44,86.93 31.11,86.99 30.72,86.91 30.29,86.7 27.88,85.14 27.45,84.81 27.04,84.38 26.68,83.88 26.39,83.35 26.19,82.81 26.1,82.32" fill="#3d7ce0" stroke="#3d7ce0"></polygon><polygon points="32.32,83.75 32.34,83.31 32.48,82.98 32.73,82.77 33.07,82.7 33.47,82.78 33.91,82.99 36.45,84.58 36.9,84.93 37.33,85.38 37.71,85.9 38.01,86.45 38.21,87.01 38.3,87.52 38.44,90.18 38.4,90.61 38.25,90.93 37.99,91.13 37.65,91.19 37.24,91.1 36.8,90.87 34.3,89.27 33.86,88.93 33.44,88.49 33.07,87.98 32.78,87.43 32.58,86.89 32.49,86.39" fill="#3d7ce0" stroke="#3d7ce0"></polygon><polygon points="38.97,87.95 39.01,87.51 39.16,87.18 39.42,86.97 39.77,86.91 40.19,86.99 40.65,87.22 43.28,88.86 43.75,89.22 44.19,89.68 44.58,90.21 44.88,90.77 45.08,91.33 45.16,91.85 45.26,94.53 45.21,94.96 45.05,95.28 44.78,95.47 44.42,95.52 43.99,95.43 43.53,95.19 40.95,93.53 40.49,93.18 40.06,92.73 39.68,92.21 39.39,91.66 39.19,91.11 39.11,90.61" fill="#3d7ce0" stroke="#3d7ce0"></polygon><polygon points="45.86,92.29 45.9,91.85 46.07,91.52 46.35,91.32 46.72,91.26 47.16,91.35 47.63,91.59 50.35,93.29 50.83,93.66 51.29,94.13 51.69,94.67 51.99,95.24 52.19,95.81 52.26,96.33 52.32,99.03 52.26,99.46 52.08,99.78 51.8,99.97 51.42,100.01 50.98,99.91 50.5,99.66 47.82,97.95 47.35,97.58 46.91,97.12 46.52,96.59 46.22,96.03 46.03,95.48 45.95,94.97" fill="#3d7ce0" stroke="#3d7ce0"></polygon><polygon points="52.99,96.79 53.04,96.35 53.23,96.02 53.52,95.82 53.91,95.77 54.37,95.87 54.86,96.11 60,99.33 60,105.76 54.94,102.51 54.45,102.14 54,101.67 53.61,101.13 53.3,100.56 53.11,100 53.03,99.49" fill="#6e6e78" stroke="#6e6e78"></polygon><polygon points="13.88,76.79 18.81,79.96 19,80.11 19.18,80.3 19.35,80.52 19.48,80.76 19.57,81.01 19.61,81.23 20.14,86.73 15.26,83.51 15.17,83.44 15.09,83.36 15.02,83.27 14.96,83.16 14.91,83.03 14.86,82.9 14.76,82.79 14.67,82.69 14.59,82.58 14.54,82.48 14.5,82.38 14.48,82.27" fill="#3d7ce0" stroke="#3d7ce0"></polygon><polygon points="20.31,82.56 20.32,82.14 20.43,81.82 20.65,81.62 20.95,81.55 21.32,81.63 21.72,81.83 24.06,83.33 24.48,83.66 24.88,84.09 25.24,84.58 25.53,85.11 25.72,85.64 25.82,86.13 26.2,90.72 20.74,87.12" fill="#3d7ce0" stroke="#3d7ce0"></polygon><polygon points="26.44,86.53 26.46,86.11 26.59,85.79 26.81,85.6 27.13,85.53 27.51,85.61 27.93,85.83 30.34,87.38 30.78,87.72 31.19,88.15 31.56,88.66 31.85,89.19 32.04,89.73 32.13,90.22 32.45,94.84 26.81,91.12" fill="#3d7ce0" stroke="#3d7ce0"></polygon><polygon points="32.78,90.64 32.8,90.22 32.94,89.9 33.18,89.7 33.52,89.65 33.91,89.73 34.35,89.95 36.84,91.56 37.29,91.91 37.72,92.35 38.09,92.87 38.38,93.41 38.58,93.95 38.66,94.45 38.9,99.09 33.08,95.26" fill="#3d7ce0" stroke="#3d7ce0"></polygon><polygon points="39.33,94.88 39.36,94.46 39.51,94.14 39.77,93.95 40.12,93.9 40.53,93.99 40.98,94.22 43.56,95.88 44.02,96.24 44.46,96.7 44.84,97.22 45.14,97.77 45.33,98.32 45.41,98.82 45.58,103.5 39.56,99.53" fill="#3d7ce0" stroke="#3d7ce0"></polygon><polygon points="46.1,99.27 46.14,98.84 46.31,98.53 46.58,98.34 46.95,98.3 47.38,98.4 47.84,98.64 50.52,100.36 50.99,100.73 51.44,101.19 51.83,101.73 52.13,102.29 52.33,102.84 52.4,103.35 52.49,108.05 46.26,103.94" fill="#3d7ce0" stroke="#3d7ce0"></polygon><polygon points="53.09,102.84 53.12,102.64 53.2,102.5 53.33,102.41 53.51,102.4 53.72,102.45 53.94,102.56 60,106.46 60,112.19 60,112.29 60,112.38 60,112.45 60,112.52 60,112.57 60,112.61 59.83,112.62 59.67,112.61 59.52,112.59 59.38,112.55 59.25,112.49 59.13,112.42 53.19,108.51" fill="#6e6e78" stroke="#6e6e78"></polygon><polygon points="60,60.05 60,59.91 60,59.75 60,59.58 60,59.4 60,59.2 60,59 60.19,58.9 60.38,58.8 60.55,58.71 60.71,58.63 60.86,58.55 60.99,58.47 67.74,54.9 67.62,62.01 67.58,62.29 67.48,62.59 67.33,62.88 67.13,63.15 66.9,63.37 66.66,63.54 60,67.2" fill="#3d7ce0" stroke="#3d7ce0"></polygon><polygon points="68.54,54.48 75.58,50.75 75.38,56.62 75.29,57.22 75.08,57.85 74.75,58.47 74.33,59.04 73.85,59.52 73.33,59.88 70.41,61.48 69.89,61.69 69.4,61.74 68.99,61.63 68.68,61.35 68.48,60.93 68.43,60.4" fill="#3d7ce0" stroke="#3d7ce0"></polygon><polygon points="76.35,50.34 83.13,46.75 82.84,52.57 82.74,53.16 82.53,53.78 82.2,54.39 81.79,54.95 81.32,55.42 80.82,55.76 78.01,57.31 77.51,57.51 77.05,57.55 76.66,57.43 76.36,57.15 76.19,56.73 76.14,56.21" fill="#3d7ce0" stroke="#3d7ce0"></polygon><polygon points="83.87,46.36 90.4,42.9 90.02,48.66 89.92,49.25 89.7,49.86 89.38,50.46 88.98,51.01 88.52,51.46 88.04,51.8 85.33,53.29 84.85,53.48 84.41,53.52 84.04,53.39 83.76,53.11 83.6,52.69 83.57,52.17" fill="#3d7ce0" stroke="#3d7ce0"></polygon><polygon points="91.11,42.53 97.41,39.2 96.94,44.89 96.84,45.48 96.62,46.08 96.31,46.67 95.91,47.21 95.47,47.65 95,47.98 92.39,49.41 91.93,49.6 91.5,49.62 91.15,49.49 90.89,49.21 90.75,48.8 90.72,48.28" fill="#3d7ce0" stroke="#3d7ce0"></polygon><polygon points="98.09,38.83 104.16,35.62 103.62,41.26 103.52,41.84 103.3,42.43 102.99,43.01 102.6,43.54 102.17,43.97 101.72,44.29 99.19,45.67 98.75,45.85 98.35,45.87 98.01,45.74 97.77,45.45 97.64,45.04 97.62,44.52" fill="#3d7ce0" stroke="#3d7ce0"></polygon><polygon points="104.82,35.27 110.23,32.41 110.33,32.36 110.41,32.31 110.48,32.27 110.54,32.24 110.59,32.22 110.63,32.2 110.72,32.33 110.79,32.46 110.85,32.59 110.88,32.72 110.9,32.85 110.89,32.98 110.17,39.65 104.86,42.56 104.66,42.64 104.48,42.65 104.33,42.59 104.23,42.46 104.17,42.27 104.17,42.03" fill="#6e6e78" stroke="#6e6e78"></polygon><polygon points="60,68.04 65.54,64.99 66.07,64.77 66.56,64.72 66.98,64.83 67.29,65.1 67.49,65.5 67.55,66.02 67.49,69.15 67.42,69.73 67.21,70.36 66.88,70.98 66.46,71.55 65.97,72.04 65.44,72.4 60,75.5" fill="#6e6e78" stroke="#6e6e78"></polygon><polygon points="68.33,65.59 68.41,65 68.62,64.36 68.95,63.74 69.37,63.16 69.87,62.68 70.39,62.32 73.31,60.71 73.82,60.5 74.28,60.45 74.68,60.57 74.98,60.84 75.16,61.25 75.2,61.77 75.1,64.86 75.01,65.44 74.8,66.06 74.48,66.66 74.06,67.22 73.59,67.7 73.08,68.06 70.21,69.69 69.7,69.91 69.23,69.97 68.82,69.87 68.51,69.62 68.32,69.22 68.27,68.71" fill="#eb4242" stroke="#eb4242"></polygon><polygon points="75.95,61.35 76.04,60.76 76.25,60.14 76.58,59.52 76.99,58.96 77.47,58.48 77.98,58.13 80.78,56.59 81.27,56.39 81.72,56.35 82.1,56.47 82.38,56.74 82.54,57.15 82.58,57.66 82.42,60.73 82.33,61.3 82.12,61.91 81.8,62.51 81.39,63.06 80.93,63.52 80.44,63.87 77.68,65.44 77.19,65.65 76.73,65.71 76.35,65.6 76.06,65.34 75.89,64.95 75.84,64.44" fill="#eb4242" stroke="#eb4242"></polygon><polygon points="83.3,57.26 83.39,56.68 83.61,56.06 83.93,55.46 84.33,54.91 84.8,54.45 85.28,54.11 87.99,52.61 88.46,52.42 88.89,52.39 89.25,52.52 89.51,52.79 89.66,53.2 89.68,53.71 89.48,56.75 89.38,57.32 89.17,57.91 88.86,58.5 88.46,59.04 88.01,59.49 87.54,59.83 84.87,61.35 84.4,61.55 83.97,61.59 83.6,61.48 83.33,61.22 83.17,60.83 83.14,60.33" fill="#eb4242" stroke="#eb4242"></polygon><polygon points="90.38,53.32 90.48,52.75 90.69,52.14 91.01,51.54 91.41,51 91.86,50.55 92.33,50.22 94.94,48.78 95.39,48.6 95.8,48.58 96.14,48.71 96.39,48.99 96.52,49.39 96.54,49.89 96.29,52.91 96.19,53.47 95.98,54.06 95.67,54.64 95.28,55.16 94.84,55.61 94.39,55.93 91.81,57.4 91.36,57.59 90.94,57.63 90.6,57.51 90.34,57.25 90.2,56.86 90.17,56.36" fill="#eb4242" stroke="#eb4242"></polygon><polygon points="97.21,49.52 97.31,48.95 97.53,48.35 97.84,47.77 98.23,47.24 98.67,46.8 99.13,46.48 101.65,45.09 102.08,44.92 102.47,44.9 102.8,45.03 103.02,45.31 103.15,45.71 103.15,46.21 102.87,49.2 102.76,49.75 102.55,50.34 102.24,50.91 101.86,51.42 101.44,51.86 101,52.17 98.51,53.59 98.07,53.77 97.68,53.8 97.35,53.68 97.11,53.42 96.98,53.02 96.96,52.53" fill="#eb4242" stroke="#eb4242"></polygon><polygon points="103.8,45.85 103.91,45.29 104.13,44.7 104.44,44.12 104.82,43.6 105.24,43.17 105.68,42.86 110.08,40.44 109.32,47.44 104.98,49.9 104.56,50.08 104.18,50.11 103.87,49.98 103.64,49.72 103.52,49.32 103.51,48.83" fill="#eb4242" stroke="#eb4242"></polygon><polygon points="60,76.31 65.43,73.21 65.95,72.99 66.44,72.92 66.85,73.01 67.16,73.26 67.35,73.65 67.41,74.15 67.35,77.16 67.28,77.72 67.07,78.33 66.75,78.93 66.34,79.5 65.86,79.98 65.34,80.35 60,83.49" fill="#6e6e78" stroke="#6e6e78"></polygon><polygon points="68.17,73.71 68.25,73.13 68.46,72.52 68.78,71.9 69.2,71.34 69.68,70.86 70.19,70.49 73.06,68.86 73.56,68.64 74.02,68.58 74.41,68.68 74.7,68.94 74.88,69.32 74.92,69.82 74.82,72.8 74.74,73.36 74.53,73.96 74.21,74.56 73.81,75.11 73.34,75.58 72.84,75.94 70.03,77.6 69.52,77.82 69.06,77.9 68.66,77.81 68.36,77.58 68.17,77.2 68.11,76.71" fill="#eb4242" stroke="#eb4242"></polygon><polygon points="75.66,69.39 75.74,68.82 75.95,68.22 76.27,67.62 76.68,67.06 77.15,66.59 77.65,66.24 80.41,64.66 80.89,64.46 81.33,64.4 81.7,64.51 81.97,64.77 82.13,65.15 82.17,65.64 82.02,68.6 81.93,69.16 81.72,69.75 81.41,70.33 81.01,70.87 80.56,71.33 80.08,71.68 77.36,73.28 76.88,73.5 76.43,73.57 76.05,73.48 75.77,73.23 75.6,72.86 75.55,72.37" fill="#eb4242" stroke="#eb4242"></polygon><polygon points="82.88,65.23 82.97,64.67 83.18,64.07 83.5,63.48 83.89,62.94 84.35,62.48 84.83,62.14 87.49,60.62 87.95,60.42 88.38,60.38 88.73,60.49 88.98,60.74 89.13,61.13 89.16,61.62 88.96,64.55 88.87,65.1 88.66,65.68 88.35,66.26 87.96,66.79 87.52,67.24 87.05,67.58 84.43,69.12 83.97,69.33 83.54,69.39 83.18,69.29 82.91,69.05 82.76,68.67 82.72,68.19" fill="#eb4242" stroke="#eb4242"></polygon><polygon points="89.84,61.22 89.94,60.67 90.15,60.08 90.46,59.49 90.85,58.96 91.29,58.51 91.76,58.18 94.33,56.71 94.77,56.53 95.18,56.49 95.51,56.6 95.75,56.86 95.88,57.25 95.9,57.73 95.66,60.64 95.56,61.19 95.36,61.76 95.05,62.33 94.67,62.85 94.24,63.29 93.79,63.62 91.26,65.11 90.81,65.3 90.4,65.35 90.06,65.25 89.81,65.01 89.67,64.63 89.64,64.15" fill="#eb4242" stroke="#eb4242"></polygon><polygon points="96.56,57.35 96.66,56.8 96.88,56.22 97.18,55.64 97.57,55.12 98,54.68 98.44,54.36 100.93,52.95 101.36,52.77 101.74,52.73 102.06,52.85 102.29,53.11 102.41,53.5 102.41,53.98 102.14,56.86 102.04,57.4 101.83,57.97 101.52,58.53 101.15,59.04 100.73,59.47 100.3,59.79 97.85,61.23 97.42,61.42 97.03,61.46 96.71,61.36 96.47,61.11 96.34,60.73 96.32,60.26" fill="#eb4242" stroke="#eb4242"></polygon><polygon points="103.05,53.61 103.16,53.07 103.37,52.49 103.68,51.93 104.05,51.41 104.47,50.99 104.9,50.67 109.23,48.2 108.5,54.97 104.22,57.48 103.81,57.66 103.43,57.7 103.12,57.59 102.9,57.34 102.78,56.97 102.78,56.49" fill="#eb4242" stroke="#eb4242"></polygon><polygon points="60,84.28 65.33,81.13 65.84,80.9 66.32,80.82 66.72,80.9 67.02,81.13 67.21,81.49 67.27,81.97 67.22,84.87 67.14,85.42 66.94,86.01 66.63,86.6 66.22,87.16 65.75,87.64 65.24,88.01 60,91.19" fill="#6e6e78" stroke="#6e6e78"></polygon><polygon points="68.02,81.53 68.1,80.97 68.3,80.37 68.62,79.77 69.03,79.21 69.5,78.74 70.01,78.37 72.82,76.71 73.31,76.49 73.76,76.42 74.15,76.5 74.43,76.74 74.61,77.1 74.65,77.58 74.55,80.46 74.47,81 74.27,81.58 73.96,82.16 73.56,82.71 73.1,83.18 72.61,83.54 69.84,85.22 69.35,85.45 68.89,85.54 68.5,85.47 68.2,85.25 68.02,84.89 67.97,84.42" fill="#eb4242" stroke="#eb4242"></polygon><polygon points="75.38,77.15 75.46,76.6 75.67,76.01 75.98,75.42 76.38,74.87 76.84,74.4 77.33,74.05 80.04,72.45 80.51,72.24 80.95,72.17 81.31,72.26 81.58,72.5 81.74,72.87 81.77,73.34 81.63,76.2 81.54,76.73 81.34,77.31 81.03,77.88 80.64,78.42 80.2,78.87 79.72,79.22 77.05,80.84 76.58,81.07 76.14,81.14 75.77,81.07 75.49,80.85 75.32,80.49 75.27,80.02" fill="#eb4242" stroke="#eb4242"></polygon><polygon points="82.47,72.93 82.56,72.38 82.77,71.8 83.08,71.22 83.47,70.68 83.92,70.23 84.39,69.88 87.01,68.34 87.46,68.13 87.88,68.08 88.22,68.17 88.48,68.41 88.62,68.78 88.65,69.25 88.46,72.08 88.37,72.62 88.16,73.18 87.86,73.75 87.48,74.27 87.04,74.72 86.59,75.06 84.01,76.62 83.55,76.84 83.13,76.91 82.78,76.83 82.51,76.6 82.36,76.24 82.32,75.78" fill="#eb4242" stroke="#eb4242"></polygon><polygon points="89.32,68.85 89.42,68.31 89.62,67.74 89.93,67.16 90.31,66.64 90.75,66.19 91.2,65.86 93.73,64.37 94.17,64.17 94.57,64.12 94.9,64.23 95.14,64.47 95.27,64.84 95.29,65.3 95.06,68.11 94.96,68.64 94.75,69.2 94.46,69.76 94.08,70.27 93.66,70.71 93.22,71.04 90.72,72.55 90.28,72.75 89.88,72.81 89.54,72.73 89.3,72.5 89.16,72.14 89.13,71.68" fill="#eb4242" stroke="#eb4242"></polygon><polygon points="95.94,64.91 96.04,64.38 96.24,63.81 96.55,63.25 96.92,62.73 97.35,62.3 97.79,61.98 100.23,60.53 100.65,60.35 101.03,60.31 101.35,60.41 101.57,60.66 101.69,61.02 101.7,61.49 101.43,64.27 101.33,64.8 101.13,65.35 100.83,65.9 100.47,66.4 100.05,66.83 99.62,67.15 97.21,68.61 96.79,68.81 96.4,68.86 96.08,68.77 95.85,68.54 95.72,68.18 95.71,67.72" fill="#eb4242" stroke="#eb4242"></polygon><polygon points="102.33,61.11 102.43,60.58 102.64,60.02 102.94,59.47 103.31,58.96 103.72,58.54 104.15,58.22 108.41,55.7 107.7,62.25 103.49,64.8 103.08,64.99 102.71,65.04 102.41,64.94 102.19,64.71 102.07,64.35 102.06,63.9" fill="#eb4242" stroke="#eb4242"></polygon><polygon points="60,91.94 65.23,88.76 65.74,88.52 66.2,88.43 66.6,88.49 66.9,88.71 67.08,89.05 67.14,89.51 67.09,92.31 67.02,92.84 66.82,93.41 66.51,93.99 66.11,94.54 65.65,95.02 65.15,95.39 60,98.61" fill="#6e6e78" stroke="#6e6e78"></polygon><polygon points="67.88,89.06 67.95,88.52 68.15,87.94 68.46,87.35 68.87,86.8 69.33,86.33 69.83,85.96 72.59,84.28 73.07,84.05 73.52,83.97 73.9,84.04 74.18,84.26 74.35,84.61 74.39,85.06 74.3,87.84 74.22,88.37 74.02,88.93 73.71,89.51 73.32,90.04 72.87,90.51 72.39,90.87 69.67,92.57 69.19,92.81 68.74,92.9 68.35,92.85 68.06,92.64 67.88,92.31 67.82,91.85" fill="#eb4242" stroke="#eb4242"></polygon><polygon points="75.1,84.63 75.19,84.09 75.39,83.52 75.7,82.94 76.09,82.4 76.54,81.94 77.02,81.59 79.69,79.96 80.15,79.74 80.58,79.67 80.94,79.75 81.2,79.97 81.36,80.32 81.4,80.77 81.25,83.53 81.17,84.05 80.97,84.61 80.67,85.17 80.28,85.7 79.85,86.15 79.38,86.5 76.75,88.14 76.29,88.37 75.86,88.46 75.49,88.4 75.21,88.19 75.05,87.85 75,87.4" fill="#eb4242" stroke="#eb4242"></polygon><polygon points="82.08,80.35 82.17,79.82 82.37,79.25 82.68,78.69 83.06,78.16 83.5,77.7 83.96,77.36 86.54,75.79 86.99,75.58 87.4,75.52 87.74,75.6 87.99,75.82 88.13,76.17 88.16,76.62 87.98,79.36 87.88,79.88 87.68,80.43 87.39,80.98 87.01,81.5 86.58,81.94 86.13,82.28 83.6,83.87 83.15,84.09 82.73,84.17 82.38,84.1 82.12,83.89 81.97,83.55 81.94,83.1" fill="#eb4242" stroke="#eb4242"></polygon><polygon points="88.82,76.22 88.91,75.69 89.12,75.13 89.42,74.57 89.79,74.06 90.22,73.61 90.67,73.28 93.16,71.76 93.59,71.56 93.98,71.5 94.31,71.59 94.54,71.82 94.67,72.17 94.69,72.62 94.47,75.33 94.38,75.84 94.17,76.39 93.88,76.94 93.51,77.44 93.1,77.88 92.66,78.21 90.21,79.74 89.77,79.95 89.38,80.02 89.05,79.95 88.8,79.74 88.66,79.4 88.63,78.95" fill="#eb4242" stroke="#eb4242"></polygon><polygon points="95.33,72.22 95.43,71.7 95.63,71.15 95.93,70.6 96.3,70.09 96.72,69.66 97.15,69.33 99.56,67.87 99.98,67.68 100.35,67.62 100.66,67.72 100.88,67.95 101,68.3 101.01,68.74 100.75,71.44 100.65,71.95 100.45,72.49 100.16,73.02 99.8,73.52 99.4,73.94 98.97,74.27 96.6,75.75 96.18,75.95 95.8,76.02 95.48,75.94 95.25,75.72 95.13,75.38 95.11,74.94" fill="#eb4242" stroke="#eb4242"></polygon><polygon points="101.63,68.36 101.73,67.85 101.94,67.3 102.23,66.76 102.59,66.26 103,65.84 103.42,65.52 107.62,62.96 106.93,69.29 102.78,71.89 102.38,72.08 102.01,72.14 101.71,72.05 101.5,71.84 101.38,71.49 101.37,71.05" fill="#eb4242" stroke="#eb4242"></polygon><polygon points="60,99.33 65.14,96.11 65.63,95.87 66.09,95.77 66.48,95.82 66.77,96.02 66.96,96.35 67.01,96.79 66.97,99.49 66.89,100 66.7,100.56 66.39,101.13 66,101.67 65.55,102.14 65.06,102.51 60,105.76" fill="#6e6e78" stroke="#6e6e78"></polygon><polygon points="67.74,96.33 67.81,95.81 68.01,95.24 68.31,94.67 68.71,94.13 69.17,93.66 69.65,93.29 72.37,91.59 72.84,91.35 73.28,91.26 73.65,91.32 73.93,91.52 74.1,91.85 74.14,92.29 74.05,94.97 73.97,95.48 73.78,96.03 73.48,96.59 73.09,97.12 72.65,97.58 72.18,97.95 69.5,99.66 69.02,99.91 68.58,100.01 68.2,99.97 67.92,99.78 67.74,99.46 67.68,99.03" fill="#eb4242" stroke="#eb4242"></polygon><polygon points="74.84,91.85 74.92,91.33 75.12,90.77 75.42,90.21 75.81,89.68 76.25,89.22 76.72,88.86 79.35,87.22 79.81,86.99 80.23,86.91 80.58,86.97 80.84,87.18 80.99,87.51 81.03,87.95 80.89,90.61 80.81,91.11 80.61,91.66 80.32,92.21 79.94,92.73 79.51,93.18 79.05,93.53 76.47,95.19 76.01,95.43 75.58,95.52 75.22,95.47 74.95,95.28 74.79,94.96 74.74,94.53" fill="#eb4242" stroke="#eb4242"></polygon><polygon points="81.7,87.52 81.79,87.01 81.99,86.45 82.29,85.9 82.67,85.38 83.1,84.93 83.55,84.58 86.09,82.99 86.53,82.78 86.93,82.7 87.27,82.77 87.52,82.98 87.66,83.31 87.68,83.75 87.51,86.39 87.42,86.89 87.22,87.43 86.93,87.98 86.56,88.49 86.14,88.93 85.7,89.27 83.2,90.87 82.76,91.1 82.35,91.19 82.01,91.13 81.75,90.93 81.6,90.61 81.56,90.18" fill="#eb4242" stroke="#eb4242"></polygon><polygon points="88.34,83.34 88.43,82.83 88.63,82.28 88.92,81.73 89.29,81.22 89.71,80.78 90.16,80.45 92.61,78.91 93.03,78.7 93.42,78.64 93.74,78.71 93.97,78.92 94.1,79.26 94.12,79.69 93.9,82.32 93.81,82.81 93.61,83.35 93.32,83.88 92.96,84.38 92.55,84.81 92.12,85.14 89.71,86.7 89.28,86.91 88.89,86.99 88.56,86.93 88.32,86.73 88.18,86.41 88.16,85.98" fill="#eb4242" stroke="#eb4242"></polygon><polygon points="94.75,79.29 94.84,78.79 95.04,78.25 95.34,77.71 95.7,77.21 96.11,76.78 96.54,76.45 98.91,74.96 99.32,74.77 99.69,74.7 99.99,74.78 100.21,75 100.33,75.33 100.34,75.76 100.09,78.37 100,78.86 99.8,79.39 99.51,79.92 99.16,80.41 98.76,80.83 98.34,81.15 96,82.65 95.59,82.86 95.22,82.94 94.9,82.87 94.68,82.67 94.55,82.34 94.53,81.92" fill="#eb4242" stroke="#eb4242"></polygon><polygon points="100.95,75.38 101.05,74.88 101.25,74.34 101.54,73.81 101.9,73.32 102.3,72.9 102.71,72.58 106.86,69.99 106.19,76.12 102.1,78.74 101.7,78.94 101.34,79.01 101.04,78.94 100.83,78.73 100.71,78.41 100.7,77.98" fill="#eb4242" stroke="#eb4242"></polygon><polygon points="60,106.46 66.06,102.56 66.28,102.45 66.49,102.4 66.67,102.41 66.8,102.5 66.88,102.64 66.91,102.84 66.81,108.51 60.87,112.42 60.75,112.49 60.62,112.55 60.48,112.59 60.33,112.61 60.17,112.62 60,112.61 60,112.57 60,112.52 60,112.45 60,112.38 60,112.29 60,112.19" fill="#6e6e78" stroke="#6e6e78"></polygon><polygon points="67.6,103.35 67.67,102.84 67.87,102.29 68.17,101.73 68.56,101.19 69.01,100.73 69.48,100.36 72.16,98.64 72.62,98.4 73.05,98.3 73.42,98.34 73.69,98.53 73.86,98.84 73.9,99.27 73.74,103.94 67.51,108.05" fill="#eb4242" stroke="#eb4242"></polygon><polygon points="74.59,98.82 74.67,98.32 74.86,97.77 75.16,97.22 75.54,96.7 75.98,96.24 76.44,95.88 79.02,94.22 79.47,93.99 79.88,93.9 80.23,93.95 80.49,94.14 80.64,94.46 80.67,94.88 80.44,99.53 74.42,103.5" fill="#eb4242" stroke="#eb4242"></polygon><polygon points="81.34,94.45 81.42,93.95 81.62,93.41 81.91,92.87 82.28,92.35 82.71,91.91 83.16,91.56 85.65,89.95 86.09,89.73 86.48,89.65 86.82,89.7 87.06,89.9 87.2,90.22 87.22,90.64 86.92,95.26 81.1,99.09" fill="#eb4242" stroke="#eb4242"></polygon><polygon points="87.87,90.22 87.96,89.73 88.15,89.19 88.44,88.66 88.81,88.15 89.22,87.72 89.66,87.38 92.07,85.83 92.49,85.61 92.87,85.53 93.19,85.6 93.41,85.79 93.54,86.11 93.56,86.53 93.19,91.12 87.55,94.84" fill="#eb4242" stroke="#eb4242"></polygon><polygon points="94.18,86.13 94.28,85.64 94.47,85.11 94.76,84.58 95.12,84.09 95.52,83.66 95.94,83.33 98.28,81.83 98.68,81.63 99.05,81.55 99.35,81.62 99.57,81.82 99.68,82.14 99.69,82.56 99.26,87.12 93.8,90.72" fill="#eb4242" stroke="#eb4242"></polygon><polygon points="100.39,81.23 100.43,81.01 100.52,80.76 100.65,80.52 100.82,80.3 101,80.11 101.19,79.96 106.12,76.79 105.52,82.27 105.5,82.38 105.46,82.48 105.41,82.58 105.33,82.69 105.24,82.79 105.14,82.9 105.09,83.03 105.04,83.16 104.98,83.27 104.91,83.36 104.83,83.44 104.74,83.51 99.86,86.73" fill="#eb4242" stroke="#eb4242"></polygon></g><g fill="none" stroke="#121216" stroke-width="0.6" stroke-linecap="round" stroke-linejoin="round"><polyline points="60,59 59.81,58.9 59.62,58.8 59.45,58.71 59.29,58.63 59.14,58.55 59.01,58.47 9.77,32.41 9.67,32.36 9.59,32.31 9.52,32.27 9.46,32.24 9.41,32.22 9.37,32.2"></polyline><polyline points="60,59 60.19,58.9 60.38,58.8 60.55,58.71 60.71,58.63 60.86,58.55 60.99,58.47 110.23,32.41 110.33,32.36 110.41,32.31 110.48,32.27 110.54,32.24 110.59,32.22 110.63,32.2"></polyline><polyline points="60,59 60,59.2 60,59.4 60,59.58 60,59.75 60,59.91 60,60.05 60,112.19 60,112.29 60,112.38 60,112.45 60,112.52 60,112.57 60,112.61"></polyline></g></svg>