<svg xmlns="http://www.w3.org/2000/svg" width="300" height="300" viewBox="0 0 120 120" role="img" aria-labelledby="_R_0_" focusable="false"><title id="_R_0_">Case preview seen from above</title><g stroke-width="0.9" stroke-linejoin="round"><polygon points="39.75,42.75 39.85,41.97 40.15,41.25 40.63,40.63 41.25,40.15 41.97,39.85 42.75,39.75 55.5,39.75 56.28,39.85 57,40.15 57.62,40.63 58.1,41.25 58.4,41.97 58.5,42.75 58.5,55.89 58.41,56.57 58.15,57.2 57.74,57.74 57.2,58.15 56.57,58.41 55.89,58.5 42.75,58.5 41.97,58.4 41.25,58.1 40.63,57.62 40.15,57 39.85,56.28 39.75,55.5" fill="#ffe62a" stroke="#ffe62a"></polygon><polygon points="61.5,42.75 61.6,41.97 61.9,41.25 62.38,40.63 63,40.15 63.72,39.85 64.5,39.75 77.25,39.75 78.03,39.85 78.75,40.15 79.37,40.63 79.85,41.25 80.15,41.97 80.25,42.75 80.25,55.5 80.15,56.28 79.85,57 79.37,57.62 78.75,58.1 78.03,58.4 77.25,58.5 64.11,58.5 63.43,58.41 62.8,58.15 62.26,57.74 61.85,57.2 61.59,56.57 61.5,55.89" fill="#ffe62a" stroke="#ffe62a"></polygon><polygon points="39.75,64.5 39.85,63.72 40.15,63 40.63,62.38 41.25,61.9 41.97,61.6 42.75,61.5 55.89,61.5 56.57,61.59 57.2,61.85 57.74,62.26 58.15,62.8 58.41,63.43 58.5,64.11 58.5,77.25 58.4,78.03 58.1,78.75 57.62,79.37 57,79.85 56.28,80.15 55.5,80.25 42.75,80.25 41.97,80.15 41.25,79.85 40.63,79.37 40.15,78.75 39.85,78.03 39.75,77.25" fill="#ffe62a" stroke="#ffe62a"></polygon><polygon points="61.5,64.11 61.59,63.43 61.85,62.8 62.26,62.26 62.8,61.85 63.43,61.59 64.11,61.5 77.25,61.5 78.03,61.6 78.75,61.9 79.37,62.38 79.85,63 80.15,63.72 80.25,64.5 80.25,77.25 80.15,78.03 79.85,78.75 79.37,79.37 78.75,79.85 78.03,80.15 77.25,80.25 64.5,80.25 63.72,80.15 63,79.85 62.38,79.37 61.9,78.75 61.6,78.03 61.5,77.25" fill="#ffe62a" stroke="#ffe62a"></polygon><polygon points="39.75,26.88 39.8,26.49 39.95,26.13 40.19,25.81 40.5,25.58 40.86,25.43 41.25,25.38 57,25.38 57.39,25.43 57.75,25.58 58.06,25.81 58.3,26.13 58.45,26.49 58.5,26.88 58.5,33.25 58.45,33.64 58.3,34 58.06,34.31 57.75,34.55 57.39,34.7 57,34.75 41.25,34.75 40.86,34.7 40.5,34.55 40.19,34.31 39.95,34 39.8,33.64 39.75,33.25" fill="#1abe57" stroke="#1abe57"></polygon><polygon points="85.25,41.25 85.3,40.86 85.45,40.5 85.69,40.19 86,39.95 86.36,39.8 86.75,39.75 93.13,39.75 93.51,39.8 93.88,39.95 94.19,40.19 94.42,40.5 94.57,40.86 94.63,41.25 94.63,57 94.57,57.39 94.42,57.75 94.19,58.06 93.88,58.3 93.51,58.45 93.13,58.5 86.75,58.5 86.36,58.45 86,58.3 85.69,58.06 85.45,57.75 85.3,57.39 85.25,57" fill="#ff801f" stroke="#ff801f"></polygon><polygon points="39.75,86.75 39.8,86.36 39.95,86 40.19,85.69 40.5,85.45 40.86,85.3 41.25,85.25 57,85.25 57.39,85.3 57.75,85.45 58.06,85.69 58.3,86 58.45,86.36 58.5,86.75 58.5,93.13 58.45,93.51 58.3,93.88 58.06,94.19 57.75,94.42 57.39,94.57 57,94.63 41.25,94.63 40.86,94.57 40.5,94.42 40.19,94.19 39.95,93.88 39.8,93.51 39.75,93.13" fill="#1abe57" stroke="#1abe57"></polygon><polygon points="25.38,41.25 25.43,40.86 25.58,40.5 25.81,40.19 26.13,39.95 26.49,39.8 26.88,39.75 33.25,39.75 33.64,39.8 34,39.95 34.31,40.19 34.55,40.5 34.7,40.86 34.75,41.25 34.75,57 34.7,57.39 34.55,57.75 34.31,58.06 34,58.3 33.64,58.45 33.25,58.5 26.88,58.5 26.49,58.45 26.13,58.3 25.81,58.06 25.58,57.75 25.43,57.39 25.38,57" fill="#ff801f" stroke="#ff801f"></polygon><polygon points="61.5,26.88 61.55,26.49 61.7,26.13 61.94,25.81 62.25,25.58 62.61,25.43 63,25.38 78.75,25.38 79.14,25.43 79.5,25.58 79.81,25.81 80.05,26.13 80.2,26.49 80.25,26.88 80.25,33.25 80.2,33.64 80.05,34 79.81,34.31 79.5,34.55 79.14,34.7 78.75,34.75 63,34.75 62.61,34.7 62.25,34.55 61.94,34.31 61.7,34 61.55,33.64 61.5,33.25" fill="#3d7ce0" stroke="#3d7ce0"></polygon><polygon points="85.25,63 85.3,62.61 85.45,62.25 85.69,61.94 86,61.7 86.36,61.55 86.75,61.5 93.13,61.5 93.51,61.55 93.88,61.7 94.19,61.94 94.42,62.25 94.57,62.61 94.63,63 94.63,78.75 94.57,79.14 94.42,79.5 94.19,79.81 93.88,80.05 93.51,80.2 93.13,80.25 86.75,80.25 86.36,80.2 86,80.05 85.69,79.81 85.45,79.5 85.3,79.14 85.25,78.75" fill="#eb4242" stroke="#eb4242"></polygon><polygon points="61.5,86.75 61.55,86.36 61.7,86 61.94,85.69 62.25,85.45 62.61,85.3 63,85.25 78.75,85.25 79.14,85.3 79.5,85.45 79.81,85.69 80.05,86 80.2,86.36 80.25,86.75 80.25,93.13 80.2,93.51 80.05,93.88 79.81,94.19 79.5,94.42 79.14,94.57 78.75,94.63 63,94.63 62.61,94.57 62.25,94.42 61.94,94.19 61.7,93.88 61.55,93.51 61.5,93.13" fill="#3d7ce0" stroke="#3d7ce0"></polygon><polygon points="25.38,63 25.43,62.61 25.58,62.25 25.81,61.94 26.13,61.7 26.49,61.55 26.88,61.5 33.25,61.5 33.64,61.55 34,61.7 34.31,61.94 34.55,62.25 34.7,62.61 34.75,63 34.75,78.75 34.7,79.14 34.55,79.5 34.31,79.81 34,80.05 33.64,80.2 33.25,80.25 26.88,80.25 26.49,80.2 26.13,80.05 25.81,79.81 25.58,79.5 25.43,79.14 25.38,78.75" fill="#eb4242" stroke="#eb4242"></polygon><polygon points="39.75,14.5 39.8,14.11 39.95,13.75 40.19,13.44 40.5,13.2 40.86,13.05 41.25,13 57,13 57.39,13.05 57.75,13.2 58.06,13.44 58.3,13.75 58.45,14.11 58.5,14.5 58.5,20.88 58.45,21.26 58.3,21.63 58.06,21.94 57.75,22.17 57.39,22.32 57,22.38 41.25,22.38 40.86,22.32 40.5,22.17 40.19,21.94 39.95,21.63 39.8,21.26 39.75,20.88" fill="#1abe57" stroke="#1abe57"></polygon><polygon points="97.63,41.25 97.68,40.86 97.83,40.5 98.06,40.19 98.38,39.95 98.74,39.8 99.13,39.75 105.5,39.75 105.89,39.8 106.25,39.95 106.56,40.19 106.8,40.5 106.95,40.86 107,41.25 107,57 106.95,57.39 106.8,57.75 106.56,58.06 106.25,58.3 105.89,58.45 105.5,58.5 99.13,58.5 98.74,58.45 98.38,58.3 98.06,58.06 97.83,57.75 97.68,57.39 97.63,57" fill="#ff801f" stroke="#ff801f"></polygon><polygon points="39.75,99.13 39.8,98.74 39.95,98.38 40.19,98.06 40.5,97.83 40.86,97.68 41.25,97.63 57,97.63 57.39,97.68 57.75,97.83 58.06,98.06 58.3,98.38 58.45,98.74 58.5,99.13 58.5,105.5 58.45,105.89 58.3,106.25 58.06,106.56 57.75,106.8 57.39,106.95 57,107 41.25,107 40.86,106.95 40.5,106.8 40.19,106.56 39.95,106.25 39.8,105.89 39.75,105.5" fill="#1abe57" stroke="#1abe57"></polygon><polygon points="13,41.25 13.05,40.86 13.2,40.5 13.44,40.19 13.75,39.95 14.11,39.8 14.5,39.75 20.88,39.75 21.26,39.8 21.63,39.95 21.94,40.19 22.17,40.5 22.32,40.86 22.38,41.25 22.38,57 22.32,57.39 22.17,57.75 21.94,58.06 21.63,58.3 21.26,58.45 20.88,58.5 14.5,58.5 14.11,58.45 13.75,58.3 13.44,58.06 13.2,57.75 13.05,57.39 13,57" fill="#ff801f" stroke="#ff801f"></polygon><polygon points="61.5,14.5 61.55,14.11 61.7,13.75 61.94,13.44 62.25,13.2 62.61,13.05 63,13 78.75,13 79.14,13.05 79.5,13.2 79.81,13.44 80.05,13.75 80.2,14.11 80.25,14.5 80.25,20.88 80.2,21.26 80.05,21.63 79.81,21.94 79.5,22.17 79.14,22.32 78.75,22.38 63,22.38 62.61,22.32 62.25,22.17 61.94,21.94 61.7,21.63 61.55,21.26 61.5,20.88" fill="#3d7ce0" stroke="#3d7ce0"></polygon><polygon points="97.63,63 97.68,62.61 97.83,62.25 98.06,61.94 98.38,61.7 98.74,61.55 99.13,61.5 105.5,61.5 105.89,61.55 106.25,61.7 106.56,61.94 106.8,62.25 106.95,62.61 107,63 107,78.75 106.95,79.14 106.8,79.5 106.56,79.81 106.25,80.05 105.89,80.2 105.5,80.25 99.13,80.25 98.74,80.2 98.38,80.05 98.06,79.81 97.83,79.5 97.68,79.14 97.63,78.75" fill="#eb4242" stroke="#eb4242"></polygon><polygon points="61.5,99.13 61.55,98.74 61.7,98.38 61.94,98.06 62.25,97.83 62.61,97.68 63,97.63 78.75,97.63 79.14,97.68 79.5,97.83 79.81,98.06 80.05,98.38 80.2,98.74 80.25,99.13 80.25,105.5 80.2,105.89 80.05,106.25 79.81,106.56 79.5,106.8 79.14,106.95 78.75,107 63,107 62.61,106.95 62.25,106.8 61.94,106.56 61.7,106.25 61.55,105.89 61.5,105.5" fill="#3d7ce0" stroke="#3d7ce0"></polygon><polygon points="13,63 13.05,62.61 13.2,62.25 13.44,61.94 13.75,61.7 14.11,61.55 14.5,61.5 20.88,61.5 21.26,61.55 21.63,61.7 21.94,61.94 22.17,62.25 22.32,62.61 22.38,63 22.38,78.75 22.32,79.14 22.17,79.5 21.94,79.81 21.63,80.05 21.26,80.2 20.88,80.25 14.5,80.25 14.11,80.2 13.75,80.05 13.44,79.81 13.2,79.5 13.05,79.14 13,78.75" fill="#eb4242" stroke="#eb4242"></polygon></g></svg>